<?xml version="1.0" encoding="UTF-8"?>
<svg xmlns="http://www.w3.org/2000/svg" version="1.1" baseProfile="full" width="500" height="500">
    <path id="spirograph" d="M 250 294.44444444444446 L 252.9068057435619 294.3492854772712 L 255.80116409866895 294.06421606105823 L 258.6706809784946 293.59045690681023 L 261.50306867122316 292.9300367239586 L 264.2861984579183 292.0857835331158 L 267.00815254955955 291.06131255605715 L 269.6572751208445 289.86101073478613 L 272.22222222222223 288.49001794597507 L 274.69201035642675 286.95420499122423 L 277.0560635114987 285.26014845738825 L 279.3042584488919 283.4151025546212 L 281.42696805273545 281.42696805273545 L 283.41510255462117 279.3042584488919 L 285.26014845738825 277.0560635114987 L 286.95420499122423 274.69201035642675 L 288.49001794597507 272.22222222222223 L 289.86101073478613 269.6572751208445 L 291.06131255605715 267.00815254955955 L 292.0857835331158 264.2861984579183 L 292.9300367239586 261.50306867122316 L 293.59045690681023 258.6706809784946 L 294.06421606105823 255.80116409866895 L 294.3492854772712 252.9068057435619 L 294.44444444444446 250 L 294.3492854772712 247.0931942564381 L 294.06421606105823 244.19883590133105 L 293.59045690681023 241.32931902150543 L 292.9300367239586 238.49693132877687 L 292.0857835331158 235.7138015420817 L 291.06131255605715 232.99184745044047 L 289.86101073478613 230.34272487915553 L 288.49001794597507 227.7777777777778 L 286.95420499122423 225.30798964357325 L 285.26014845738825 222.94393648850132 L 283.4151025546212 220.69574155110806 L 281.42696805273545 218.57303194726458 L 279.3042584488919 216.5848974453788 L 277.0560635114987 214.7398515426118 L 274.69201035642675 213.04579500877577 L 272.22222222222223 211.50998205402496 L 269.6572751208445 210.13898926521387 L 267.00815254955955 208.93868744394283 L 264.2861984579183 207.91421646688423 L 261.50306867122316 207.06996327604145 L 258.6706809784946 206.40954309318977 L 255.80116409866895 205.93578393894177 L 252.9068057435619 205.65071452272875 L 250 205.55555555555557 L 247.0931942564381 205.65071452272875 L 244.19883590133102 205.93578393894177 L 241.3293190215054 206.40954309318977 L 238.49693132877687 207.06996327604142 L 235.7138015420817 207.91421646688423 L 232.99184745044047 208.93868744394283 L 230.34272487915553 210.13898926521387 L 227.77777777777777 211.50998205402496 L 225.30798964357325 213.04579500877577 L 222.94393648850132 214.73985154261177 L 220.69574155110806 216.58489744537877 L 218.57303194726458 218.57303194726455 L 216.5848974453788 220.69574155110806 L 214.7398515426118 222.94393648850132 L 213.04579500877577 225.30798964357325 L 211.509982054025 227.77777777777777 L 210.13898926521387 230.3427248791555 L 208.93868744394283 232.99184745044045 L 207.91421646688423 235.7138015420817 L 207.0699632760414 238.49693132877687 L 206.40954309318977 241.3293190215054 L 205.93578393894177 244.19883590133105 L 205.65071452272875 247.0931942564381 L 205.55555555555557 250 L 205.65071452272875 252.90680574356188 L 205.93578393894177 255.80116409866895 L 206.40954309318977 258.6706809784946 L 207.06996327604142 261.5030686712231 L 207.91421646688423 264.28619845791826 L 208.93868744394283 267.00815254955955 L 210.13898926521387 269.6572751208445 L 211.50998205402496 272.22222222222223 L 213.04579500877577 274.69201035642675 L 214.73985154261177 277.0560635114987 L 216.5848974453788 279.3042584488919 L 218.57303194726455 281.42696805273545 L 220.69574155110803 283.41510255462117 L 222.94393648850132 285.2601484573882 L 225.30798964357325 286.95420499122423 L 227.77777777777777 288.490017945975 L 230.3427248791555 289.86101073478613 L 232.99184745044045 291.06131255605715 L 235.7138015420817 292.0857835331158 L 238.49693132877687 292.9300367239586 L 241.3293190215054 293.59045690681023 L 244.19883590133105 294.06421606105823 L 247.0931942564381 294.3492854772712 L 250 294.44444444444446 L 252.9068057435619 294.3492854772712 L 255.80116409866895 294.06421606105823 L 258.6706809784946 293.59045690681023 L 261.50306867122316 292.93003672395855 L 264.28619845791826 292.0857835331158 L 267.00815254955955 291.06131255605715 L 269.65727512084453 289.86101073478613 L 272.2222222222222 288.49001794597507 L 274.69201035642675 286.95420499122423 L 277.0560635114987 285.26014845738825 L 279.3042584488919 283.4151025546212 L 281.42696805273545 281.42696805273545 L 283.4151025546212 279.3042584488919 L 285.2601484573882 277.0560635114987 L 286.95420499122423 274.69201035642675 L 288.49001794597507 272.22222222222223 L 289.86101073478613 269.65727512084453 L 291.06131255605715 267.00815254955955 L 292.0857835331158 264.28619845791826 L 292.93003672395855 261.50306867122316 L 293.59045690681023 258.6706809784946 L 294.06421606105823 255.80116409866895 L 294.3492854772712 252.90680574356193 L 294.44444444444446 250 L 294.3492854772712 247.0931942564381 L 294.06421606105823 244.19883590133105 L 293.59045690681023 241.32931902150546 L 292.93003672395855 238.4969313287769 L 292.0857835331158 235.7138015420817 L 291.06131255605715 232.99184745044045 L 289.86101073478613 230.3427248791555 L 288.49001794597507 227.77777777777783 L 286.95420499122423 225.30798964357325 L 285.26014845738825 222.94393648850132 L 283.4151025546213 220.6957415511081 L 281.42696805273545 218.5730319472646 L 279.3042584488919 216.58489744537877 L 277.0560635114987 214.7398515426118 L 274.69201035642675 213.04579500877577 L 272.22222222222223 211.50998205402493 L 269.65727512084453 210.13898926521387 L 267.00815254955955 208.93868744394285 L 264.2861984579183 207.91421646688423 L 261.50306867122316 207.0699632760414 L 258.6706809784946 206.40954309318977 L 255.80116409866892 205.93578393894177 L 252.90680574356193 205.65071452272875 L 250.00000000000003 205.55555555555557 L 247.0931942564381 205.65071452272875 L 244.1988359013311 205.93578393894177 L 241.32931902150546 206.40954309318977 L 238.4969313287769 207.06996327604142 L 235.71380154208174 207.9142164668842 L 232.99184745044045 208.93868744394283 L 230.3427248791555 210.13898926521387 L 227.77777777777783 211.50998205402493 L 225.30798964357325 213.04579500877577 L 222.94393648850132 214.73985154261177 L 220.6957415511081 216.58489744537874 L 218.57303194726455 218.57303194726458 L 216.58489744537877 220.69574155110809 L 214.7398515426118 222.9439364885013 L 213.04579500877577 225.30798964357325 L 211.50998205402496 227.7777777777778 L 210.13898926521387 230.34272487915547 L 208.93868744394285 232.99184745044042 L 207.91421646688423 235.71380154208168 L 207.06996327604145 238.49693132877684 L 206.40954309318977 241.32931902150543 L 205.93578393894177 244.19883590133108 L 205.65071452272875 247.09319425643804 L 205.55555555555557 249.99999999999997 L 205.65071452272875 252.9068057435619 L 205.93578393894177 255.8011640986689 L 206.40954309318977 258.67068097849454 L 207.06996327604142 261.5030686712231 L 207.9142164668842 264.28619845791826 L 208.93868744394283 267.00815254955955 L 210.13898926521387 269.65727512084453 L 211.50998205402493 272.2222222222222 L 213.04579500877577 274.69201035642675 L 214.73985154261177 277.0560635114987 L 216.58489744537874 279.3042584488919 L 218.57303194726452 281.4269680527354 L 220.69574155110809 283.4151025546212 L 222.9439364885013 285.2601484573882 L 225.30798964357325 286.95420499122423 L 227.7777777777778 288.49001794597507 L 230.34272487915544 289.8610107347861 L 232.99184745044042 291.06131255605715 L 235.71380154208168 292.0857835331158 L 238.49693132877684 292.93003672395855 L 241.32931902150543 293.59045690681023 L 244.19883590133108 294.06421606105823 L 247.09319425643804 294.3492854772712 Z" stroke="blue" stroke-width="1" fill-opacity="0"/>
    <path id="spirograph" d="M 250.8712634695961 285.59835798513603 L 254.0670385632957 285.5364422650596 L 257.2491238621764 285.29405310919265 L 260.4048171741935 284.8723655254482 L 263.5215243426398 284.27335246371564 L 266.58681219216294 283.49977618832406 L 269.58846079182143 282.5551762384375 L 272.51451481242816 281.44385402816295 L 275.35333375929986 280.17085415257657 L 278.09364086633866 278.74194248001277 L 280.7245704430933 277.1635811247555 L 283.23571347306085 275.44290040766396 L 285.6171612689665 273.5876679251945 L 287.8595469990656 271.60625485969695 L 289.9540849076137 269.50759967570684 L 291.89260706250957 267.30116935818194 L 293.66759747368883 264.99691835918566 L 295.27222343708587 262.60524542936685 L 296.70036397084516 260.1369485196685 L 297.9466352228942 257.60317794699404 L 299.0064127419397 255.01538802502014 L 299.8758505173573 252.38528736794748 L 300.5518967072612 249.7247880806879 L 301.0323059881955 247.04595405378353 L 301.31564847433543 244.36094858521204 L 301.4013151687489 241.68198155413833 L 301.2895199240948 239.02125637361726 L 300.98129790505504 236.39091695022006 L 300.4785005597504 233.80299487855137 L 299.7837871223108 231.26935709763728 L 298.9006126835981 228.80165423420937 L 297.83321288174335 226.4112698549866 L 296.58658527860774 224.10927084618316 L 295.16646750243564 221.90635913366134 L 293.57931225078664 219.8128249514237 L 291.83225926124436 217.8385018595244 L 289.93310437035507 215.99272370500267 L 287.8902657936836 214.28428371113418 L 285.71274777174165 212.72139587119514 L 283.4101017377888 211.31165881307686 L 280.9923851740878 210.0620222905175 L 278.4701183330561 208.9787564454801 L 275.854239008868 208.06742397434672 L 273.15605555337254 207.33285531817182 L 270.3871983376797 206.7791269842923 L 267.5595698673835 206.40954309318977 L 264.68529376512555 206.2266202306909 L 261.7766628390162 206.23207567144112 L 258.8460864593084 206.42681902515164 L 255.90603746864974 206.81094734246255 L 252.96899885319664 207.38374370244924 L 250.04741040286746 208.1436792888887 L 247.15361558901984 209.08841894745808 L 244.29980888687342 210.21483020112885 L 241.4979837680601 211.51899568620473 L 238.7598815857787 212.99622895679752 L 236.09694157117625 214.6410935911026 L 233.52025215478469 216.44742551868768 L 231.040503821134 218.4083584742064 L 228.6679436980653 220.51635246954768 L 226.4123320748055 222.76322516349566 L 224.2829010345738 225.14018599555249 L 222.2883153784036 227.63787293872682 L 220.43663600702064 230.2463917148586 L 218.73528591706156 232.95535730549156 L 217.1910189566915 235.75393758145523 L 215.80989147383383 238.6308988652284 L 214.59723697780845 241.57465323186008 L 213.55764392224438 244.57330734675793 L 212.69493670373686 247.6147126320525 L 212.01215995692286 250.686516547534 L 211.51156621250715 253.77621476736235 L 211.19460697034353 256.871204029891 L 211.06192722502848 259.95883543503953 L 211.11336346665556 263.0264679617055 L 211.34794516447514 266.0615219767394 L 211.7638997262669 269.05153250701494 L 212.35866091132866 271.9842020471133 L 213.12888066017393 274.8474526771005 L 214.07044428938275 277.6294772678017 L 215.1784889856196 280.3187895548549 L 216.44742551868768 282.90427286763816 L 217.8709630796894 285.3752273048971 L 219.44213713696246 287.7214151555151 L 221.15334018952643 289.93310437035507 L 222.99635528535268 292.0011098994129 L 224.96239215991795 293.91683271763117 L 227.0421258392722 295.6722963725863 L 229.2257375412852 297.2601808978406 L 231.5029576988893 298.6738539469978 L 233.86311092003652 299.90739901536557 L 236.2951626907941 300.95564062857005 L 238.78776762052598 301.81416639041515 L 241.3293190215054 302.47934579569915 L 243.9079996095819 302.94834572751483 L 246.51183310772572 303.2191425727255 L 249.1287365304039 303.2905309037528 L 251.74657292382813 303.16212868948287 L 254.35320433516148 302.8343790129238 L 256.9365447827957 302.3085482881723 L 259.48461299980653 301.5867209842015 L 261.9855847236736 300.67179087790754 L 264.4278443072977 299.5674488736768 L 266.80003542926084 298.27816744140927 L 269.09111068514454 296.8091817393735 L 271.29037984651484 295.1664675024357 L 273.38755657990407 293.35671579002087 L 275.37280342472303 291.38730470157844 L 277.23677483650437 289.26626818027637 L 278.97065811017677 287.00226203808694 L 280.56621200716273 284.6045273472905 L 282.0158029199389 282.0828513546716 L 283.31243841826125 279.4475260852588 L 284.4497980324864 276.70930481232216 L 285.4222611412692 273.8793565794506 L 286.2249318433374 270.9692189688425 L 286.8536607059775 267.99074931742615 L 287.30506329626314 264.9560745890417 L 287.57653541485524 261.87754011665004 L 287.666264966347 258.76765743334033 L 287.5732404145534 255.63905141478796 L 287.2972557857936 252.50440695873783 L 286.83891219802166 249.37641542904487 L 286.19961590856536 246.2677210927908 L 285.3815728881668 243.1908677790024 L 284.3877799439208 240.15824598652617 L 283.2220124285162 237.18204066667155 L 281.8888085878289 234.2741799033244 L 280.3934506133424 231.44628470937243 L 278.74194248001277 228.7096201534852 L 276.94098466398975 226.07504802557895 L 274.9979458479981 223.55298124269177 L 272.9208317351158 221.1533401895265 L 270.7182511041002 218.8855111796234 L 268.3993792512557 216.75830721402843 L 265.9739189750647 214.7799312044747 L 263.45205927035664 212.9579418175324 L 260.8444319086329 211.29922208494767 L 258.1620660902512 209.80995091353893 L 255.41634136246404 208.4955776155966 L 252.61893900476656 207.36079956779054 L 249.7817920896057 206.40954309318977 L 246.91703443221235 205.64494764719262 L 244.03694864810768 205.06935337401637 L 241.1539135406916 204.6842920859595 L 238.28035104422645 204.49048170299497 L 235.42867294946552 204.4878241754343 L 232.6112276401434 204.67540689749086 L 229.84024706853393 205.05150760462476 L 227.12779419729 205.61360273263958 L 224.48571113282082 206.35837920168095 L 221.92556817253234 207.28174957363024 L 219.45861398437938 208.3788705169473 L 217.09572713236184 209.64416449886386 L 214.84736915586865 211.07134461101717 L 212.72353940415087 212.65344242120983 L 210.7337318197236 214.3828387310335 L 208.88689385618375 216.25129710666366 L 207.19138770681997 218.2500000382758 L 205.65495401053093 220.36958757228788 L 204.28467819098836 222.600198250064 L 203.08695957373624 224.93151217685573 L 202.06748341405185 227.35279603565246 L 201.23119595595995 229.8529498523033 L 200.58228262983843 232.42055531079578 L 200.12414948264268 235.04392541095834 L 199.85940792096068 237.7111552551281 L 199.78986283295035 240.41017374551382 L 199.91650414076761 243.128795970109 L 200.239501820429 245.85477605208428 L 200.75820441122798 248.57586023563232 L 201.47114102190443 251.2798399802497 L 202.37602682581593 253.9546048354313 L 203.46977202243974 256.5881948687233 L 204.74849422771172 259.16885242201863 L 206.20753424104495 261.6850729738873 L 207.84147512243032 264.1256548895895 L 209.64416449886386 266.4797478452153 L 211.60874000553414 268.73689971810023 L 213.72765775379509 270.8871017422687 L 215.99272370500265 272.92083173511577 L 218.39512781686344 274.8290952098295 L 220.92548081708463 276.60346419714523 L 223.5738534478743 278.2361136098622 L 226.32981801427033 279.7198549941095 L 229.18249205942163 281.04816752257443 L 232.12058398084434 282.2152260967487 L 235.1324403933693 283.21592643766155 L 238.20609503702772 284.04590705750195 L 241.32931902150543 284.7015680179213 L 244.48967219308017 285.18008639460163 L 247.67455540515044 285.479428381817 Z" stroke="blue" stroke-width="1" fill-opacity="0"/>
    <path id="spirograph" d="M 253.46827239139785 277.00826168172034 L 256.9437170863952 277.03591695678534 L 260.4023915671582 276.89220137147475 L 263.83129746301836 276.57818427157093 L 267.2175480543905 276.0957233107123 L 270.5484215320736 275.4474559463189 L 273.8114135693834 274.6367875336343 L 276.99428898403374 273.6678760695208 L 280.08513227056 272.5456136520606 L 283.0723967888889 271.2756047361423 L 285.9449524003876 269.8641412789982 L 288.6921313493429 268.3181748830376 L 291.3037721953061 266.6452860562457 L 293.7702616100488 264.85365072281877 L 296.0825738619877 262.9520041285434 L 298.23230782080014 260.94960229664474 L 300.2117213255318 258.8561812003737 L 302.01376277074826 256.6819138284385 L 303.6320997771513 254.43736532846535 L 305.06114482552175 252.13344642195614 L 306.29607774580705 249.78136529166636 L 307.3328649665922 247.39257814891866 L 308.1682754440135 244.97873869406948 L 308.7998932033444 242.55164668813433 L 309.22612644093414 240.1231958574293 L 309.4462131488549 237.70532135598708 L 309.4602232394483 235.30994701244217 L 309.2690571618921 232.94893258904324 L 308.87444101787304 230.63402128043904 L 308.2789181983811 228.37678767889247 L 307.4858375784801 226.18858643061665 L 306.499338321583 224.08050180500027 L 305.3243313592214 222.06329839461048 L 303.9664776264635 220.1473731590495 L 302.4321631469717 218.34270902001205 L 300.72847107510717 216.65883020827476 L 298.86315081545956 215.10475955586674 L 296.8445843526231 213.6889779183639 L 294.68174993592197 212.4193859031442 L 292.3841832750436 211.3032680695836 L 289.96193641313073 210.34725975660018 L 287.4255344537577 209.55731668171563 L 284.7859303273373 208.93868744394283 L 282.05445779083146 208.49588905038246 L 279.24278286213166 208.2326855734662 L 276.36285389711145 208.15207003238197 L 273.42685052309224 208.25624957840935 L 270.4471316472931 208.54663404974366 L 267.4361827627241 209.02382794695342 L 264.40656277692403 209.68762586556204 L 261.3708505909145 210.53701140743104 L 258.3415916567447 211.57015957771355 L 255.3312447420232 212.78444265920874 L 252.35212912887863 214.17643954103949 L 249.41637247286334 215.74194846376665 L 246.53585954442087 217.4760031284031 L 243.72218207169223 219.37289210236275 L 240.98658989865513 221.42618144123796 L 238.33994366689134 223.62874043150066 L 235.7926692226917 225.97277034582976 L 233.35471394375426 228.44983608983526 L 231.03550517145197 231.05090060653566 L 228.8439109255671 233.7663618931008 L 226.78820306855778 236.58609247314917 L 224.87602307587346 239.49948115733457 L 223.11435055761984 242.49547691511765 L 221.509474665037 245.56263467153462 L 220.06696850284638 248.68916283448766 L 218.7916666555982 251.86297235062534 L 217.68764592276568 255.07172708128738 L 216.75820934354127 258.3028952842863 L 216.00587357815635 261.54380198251124 L 215.43235969812628 264.7816819964897 L 215.03858742317973 268.0037334151455 L 214.82467282783065 271.19717127705894 L 214.78992952565196 274.34928123357645 L 214.93287332437922 277.4474729651376 L 215.25123033007344 280.47933312318366 L 215.74194846376665 283.4326775719824 L 216.40121233936912 286.29560270764136 L 217.2244614371923 289.05653563546855 L 218.20641149329953 291.704282991666 L 219.34107901110104 294.2280782010821 L 220.62180878821212 296.61762696937785 L 222.0413043386624 298.8631508154595 L 223.59166107812297 300.95542845835234 L 225.2644021279689 302.8858348818115 L 227.05051658276543 304.646377909841 L 228.94050007520252 306.2297321368835 L 230.92439746265376 307.6292700676993 L 232.99184745044045 308.839090333835 L 235.13212895858348 309.854042866029 L 237.3342090313521 310.6697509148671 L 239.5867920823132 311.2826298254271 L 241.87837026186347 311.6899024854815 L 244.1972747294232 311.88961138100245 L 246.53172760860215 311.8806272071685 L 248.8698944007286 311.66265399775716 L 251.19993663017968 311.23623075064165 L 253.51006449397082 310.6027295420495 L 255.78858928805585 309.76435013720493 L 258.023975383763 308.7241111199127 L 260.20489152973573 307.4858375784801 L 262.32026125765526 306.0541454000515 L 264.35931217388435 304.4344222398895 L 266.31162392396453 302.6328052463061 L 268.1671746226098 300.65615563577825 L 269.9163855484409 298.51203022620484 L 271.5501639101647 296.2086500492251 L 273.05994349919365 293.7548661749651 L 274.4377230527887 291.160122894454 L 275.6761021616483 288.43441841620876 L 276.76831456641827 285.58826324407073 L 277.70825869882395 282.6326364132505 L 278.49052533496297 279.57893977065373 L 279.11042224070985 276.43895049388044 L 279.5639957021101 273.22477205077996 L 279.8480488470282 269.9487838080705 L 279.9601566781029 266.6235895032685 L 279.8986777511981 263.26196479898954 L 279.6627624479547 259.87680414257073 L 279.2523578056876 256.4810671568891 L 278.66820888266824 253.08772479021997 L 277.9118566517283 249.70970545396764 L 276.9856324300441 246.35984137711466 L 275.8926488678504 243.05081540527095 L 274.6367875336343 239.7951084702643 L 273.22268314798924 236.60494795331078 L 271.65570453272875 233.49225716094514 L 269.94193235598493 230.46860612809704 L 268.0881337678048 227.54516395699056 L 266.10173403413535 224.7326528939414 L 263.9907852900114 222.04130433866243 L 261.76393254516074 219.4808169723937 L 259.4303770870754 217.06031718207936 L 256.9998374378099 214.78832194796797 L 254.4825080313137 212.67270435144974 L 251.88901578793138 210.7206618487121 L 249.23037477178178 208.93868744394285 L 246.51793912500514 207.332543883386 L 243.76335448031463 205.90724097861664 L 240.97850805987775 204.6670161539976 L 238.17547767424563 203.61531829947418 L 235.36647983983076 202.75479499571384 L 232.5638172372759 202.08728316415775 L 229.77982573595216 201.61380317989546 L 227.0268212117477 201.33455647045247 L 224.31704638626618 201.248926608666 L 221.66261791553057 201.3554838928741 L 219.07547395528482 201.65199339272894 L 216.56732242801758 202.13542642411903 L 214.14959021389012 202.80197540202465 L 211.83337348386337 203.6470720056871 L 209.6293893884914 204.66540857631358 L 207.5479293101113 205.8509626537229 L 205.5988138795245 207.19702454492776 L 203.79134995077484 208.69622780469388 L 202.1342897193056 210.3405824956805 L 200.6357921596565 212.12151108390182 L 199.3033869489938 214.02988681399734 L 198.14394103217646 216.05607439822103 L 197.1636279728079 218.18997284319332 L 196.36790022284865 220.42106022934627 L 195.76146443092205 222.73844024967576 L 195.34825989648468 225.13089030692836 L 195.13144026361385 227.58691096172342 L 195.11335853434227 230.0947765183758 L 195.29555546730117 232.6425865303649 L 195.67875141298487 235.2183180035103 L 196.26284162227773 237.8098780719783 L 197.04689505005288 240.40515692027887 L 198.0291566607276 242.99208072341267 L 199.2070532277036 245.55866437730865 L 200.57720260369493 248.09306379265294 L 202.13542642411898 250.58362752713668 L 203.8767661910586 253.0189475340476 L 205.79550267085764 255.38790880897585 L 207.885178524252 257.67973772118745 L 210.1386240741225 259.88404882191526 L 212.54798610254545 261.990889928406 L 215.10475955586668 263.9907852900113 L 217.79982202409315 265.87477665089006 L 220.62347084903368 267.6344620329649 L 223.56546270438102 269.2620320726074 L 226.615055480353 270.7503037550665 L 229.76105229565724 272.09275140187293 L 232.99184745044045 273.2835347782794 L 236.29547412557994 274.3175242002026 L 239.65965362620162 275.19032253305005 L 243.0718459606976 275.8982839881934 L 246.51930154079864 276.43852963663494 L 249.98911378345295 276.80895957354005 Z" stroke="blue" stroke-width="1" fill-opacity="0"/>
    <path id="spirograph" d="M 257.74092472678564 268.92603549158554 L 261.4785248183129 269.09781535740177 L 265.19449870990184 269.10672468086284 L 268.87557250823033 268.9536693731759 L 272.508589466007 268.6403347260606 L 276.08056353042497 268.1691770922441 L 279.5787321982528 267.5434121734344 L 282.99060845417785 266.7669999672011 L 286.3040315728987 265.8446264385996 L 289.5072165702828 264.7816819964897 L 292.5888020946401 263.5842368682785 L 295.5378965557911 262.2590134801883 L 298.3441222970993 260.81335596306246 L 300.99765762395634 259.2551969161192 L 303.48927651133147 257.5930215728897 L 305.8103858228655 255.83582952478548 L 307.953059884584 253.993094168279 L 309.91007226755886 252.07472005150933 L 311.67492464573013 250.09099830519565 L 313.2418726075487 248.05256035101908 L 314.6059483130683 245.97033008808174 L 315.7629799015448 243.85547476463853 L 316.7096075684336 241.7193547479925 L 317.4432962448563 239.5734724102286 L 317.9623448270672 237.42942035130673 L 318.2658919181429 235.2988291839314 L 318.35391805895625 233.1933151065472 L 318.2272444404445 231.1244274917697 L 317.88752810415394 229.10359671754395 L 317.3372536529853 227.14208246733074 L 316.57972150891607 225.2509227236548 L 315.6190327691613 223.44088367642163 L 314.460070726704 221.72241076352785 L 313.10847913531035 220.10558105647652 L 311.570637312985 218.60005719797894 L 309.85363219125617 217.2150430919067 L 307.96522743066066 215.95924153847628 L 305.9138297352547 214.84081399924165 L 303.7084525108684 213.86734266736443 L 301.35867702309343 213.04579500877577 L 298.874611221592 212.3824909292723 L 296.26684640720725 211.883072711351 L 293.54641192748477 211.5524778527311 L 290.72472809455326 211.3949149260856 L 287.8135575268199 211.4138425665638 L 284.8249551225807 211.61195168028655 L 281.77121687939785 211.99115095319172 L 278.6648277779371 212.55255572546264 L 275.5184089528589 213.29648028234124 L 272.3446643763076 214.22243359747972 L 269.1563272815264 215.32911855017466 L 265.96610655513973 216.6144346229255 L 262.78663332667486 218.0754840708253 L 259.6304079829534 219.7085815393909 L 256.5097478330633 221.5092670926361 L 253.43673564674054 223.4723225985472 L 250.42316928515322 225.59179140470144 L 247.4805126383078 227.86100122263184 L 244.61984807761107 230.27259012575317 L 241.851830625541 232.81853555227798 L 239.18664403693757 235.49018619162845 L 236.63395897815153 238.27829662044323 L 234.20289348122074 241.17306454244454 L 231.90197584041704 244.16417047521452 L 229.7391101079682 247.2408197163867 L 227.72154433454904 250.39178641192822 L 225.8558416883067 253.60545954011343 L 224.14785457378343 256.8698906165146 L 222.6027018591828 260.1728429178866 L 221.22474930704584 263.50184201623995 L 220.01759328961828 266.84422740870644 L 218.9840478560621 270.1872050240231 L 218.12613520424884 273.51790038262277 L 217.44507959523546 276.82341218443355 L 216.94130473372562 280.09086609656697 L 216.61443462292553 283.3074685121289 L 216.4632978872743 286.4605600514185 L 216.4859355416352 289.53766857778777 L 216.67961217072852 292.5265615024184 L 217.04083046794779 295.4152971552196 L 217.56534906827488 298.19227500295113 L 218.2482035958725 300.84628450051287 L 219.08373083313415 303.36655236709544 L 220.0655959045802 305.74278808552685 L 221.18682235605286 307.96522743066066 L 222.4398249972452 310.02467384098395 L 223.81644536374864 311.91253745675795 L 225.30798964357325 313.62087165789086 L 226.9052689025304 315.14240694534476 L 228.59864143301837 316.4705820211489 L 230.37805704165217 317.5995719339824 L 232.23310308288032 318.5243131697507 L 234.1530520382545 319.24052557955537 L 236.12691043440864 319.74473105089635 L 238.1434688870811 320.03426884178714 L 240.19135305370423 320.1073075116464 L 242.2590752732143 319.9628533973033 L 244.33508666881093 319.60075559714073 L 246.40782948743603 319.0217074412536 L 248.46578944875887 318.22724444044457 L 250.49754787643934 317.21973872185663 L 252.4918333854115 316.0023899739875 L 254.4375729008663 314.57921293868 L 256.3239417875112 312.95502150237115 L 258.14041287154566 311.13540945335046 L 259.8768041425707 309.1267279859588 L 261.52332492835734 306.93606004649797 L 263.0706203419927 304.57119162905417 L 264.5098138083715 302.04058014240843 L 265.83254748528606 299.35331998166464 L 267.031020403445 296.51910545010765 L 268.09802415958296 293.548191188068 L 269.0269760073661 290.45135027616544 L 269.81194920201335 287.2398301901797 L 270.44770046638416 283.9253067939234 L 270.9296944586829 280.5198365648175 L 271.25412513484883 277.03580725436456 L 271.4179339120757 273.4858871923507 L 271.4188245536828 269.88297344934546 L 271.2552747096862 266.2401390768953 L 270.92654406182163 262.5705796486933 L 270.4326790363996 258.8875593289448 L 269.7745140631602 255.20435669611493 L 268.9536693731759 251.53421055124116 L 267.9725453437632 247.89026594000975 L 266.8343134132463 244.2855206168327 L 265.5429036031983 240.73277217722614 L 264.102988700411 237.24456608188942 L 262.51996516524616 233.83314479202775 L 260.79993084713806 230.51039823067 L 258.94965960179144 227.2878157790237 L 256.9765729179863 224.17644001030948 L 254.88870867481023 221.1868223560529 L 252.69468716252914 218.32898089151593 L 250.40367451212896 215.61236041785912 L 248.0253436897601 213.0457950087758 L 245.56983322285245 210.6374731787776 L 243.04770383448178 208.3949058190767 L 240.46989317163434 206.32489703515458 L 237.84766882128338 204.43351800768284 L 235.19257981562637 202.72608398551904 L 232.51640683440843 201.20713450609304 L 229.83111131794 199.88041692469184 L 227.14878370918677 198.74887331999486 L 224.4815910471411 197.8146308287699 L 221.8417241365686 197.07899544797777 L 219.24134452113577 196.54244932770885 L 216.69253148787115 196.20465156345404 L 214.20722933087887 196.06444248125757 L 211.79719510121004 196.11985139437752 L 209.47394706781768 196.36810779524956 L 207.24871411157045 196.80565593188055 L 205.13238627040238 197.42817270334845 L 203.1354666488387 198.23058879491973 L 201.26802489939155 199.2071129594704 L 199.5396524766752 200.3512593384795 L 197.95941985759157 201.65587770290074 L 196.53583591260602 203.11318648177294 L 195.27680960400284 204.71480843455805 L 194.1896141771345 206.45180881193198 L 193.2808540000817 208.3147358391689 L 192.5564341958787 210.29366334638274 L 192.02153319957893 212.37823536076746 L 191.68057835998502 214.55771246764874 L 191.53722469290005 216.82101973966712 L 191.5943368793337 219.15679602677088 L 191.85397458826526 221.55344439395566 L 192.31738118939543 223.99918348885302 L 192.9849759068623 226.48209961737717 L 193.856349450222 228.99019930269023 L 194.93026314415792 231.51146210077087 L 196.20465156345404 234.03389344486024 L 197.6766286648085 236.54557729102777 L 199.34249739213317 239.0347283380488 L 201.1977627171572 241.48974359670063 L 203.23714806248 243.89925308646934 L 205.454615039775 246.25216944149327 L 207.84338642167904 248.53773621234058 L 210.3959722520894 250.74557465590192 L 213.10419898617738 252.86572881225695 L 215.95924153847625 254.88870867481015 L 218.95165810497087 256.80553126825845 L 222.0714276132539 258.60775945801845 L 225.3079896435732 260.28753832455754 L 228.65028665302518 261.83762894660526 L 232.08680832529265 263.25143944842335 L 235.60563785922875 264.52305317813193 L 239.19450000128307 265.64725389648083 L 242.84081061929922 266.6195478683618 L 246.53172760860215 267.43618276272406 L 250.25420291558098 268.0941632803293 L 253.99503545917193 268.5912634428961 Z" stroke="blue" stroke-width="1" fill-opacity="0"/>
    <path id="spirograph" d="M 263.60652203964764 261.59539439959866 L 267.5808334699404 261.96301614674053 L 271.52698419534454 262.1754074732293 L 275.4314538434189 262.2332563966465 L 279.28084644900093 262.13802236717856 L 283.0619442588203 261.89192818994854 L 286.76176083470097 261.4979485630778 L 290.3675932316997 260.9597952826398 L 293.86707303142117 260.28189918006444 L 297.2482160155786 259.4693888716602 L 300.4994702706123 258.52806641369125 L 303.6097625208163 257.4643799698093 L 306.5685424949238 256.2853936105471 L 309.3658251394331 254.9987543769676 L 311.9922305010852 253.61265675238513 L 314.4390211107882 252.13580469727492 L 316.69813671188564 250.57737141302326 L 318.7622261869325 248.94695700998932 L 320.62467654903656 247.25454426441812 L 322.279638876283 245.51045265701632 L 323.72205108073865 243.72529089344536 L 324.9476574169739 241.90990811357022 L 325.95302464888715 240.07534400199336 L 326.7355548078019 238.23277801718342 L 327.2934944892902 236.39347796035236 L 327.62594065086506 234.56874810812755 L 327.7328428875509 232.76987713499642 L 327.6150021772888 231.00808605245786 L 327.27406610312545 229.29447639179833 L 326.71252057408765 227.63997885641513 L 325.9336780815054 226.0553026676448 L 324.94166254224854 224.55088582512568 L 323.74139079482165 223.13684649884263 L 322.33855082845787 221.8229357651889 L 320.73957683920526 220.61849189365176 L 318.9516212204476 219.53239638411156 L 316.982523608291 218.57303194726458 L 314.84077711471826 217.74824261237526 L 312.5354918933157 217.06529613746133 L 310.07635619366044 216.53084888716015 L 307.4735950710688 216.1509133329601 L 304.7379269283069 215.9308283192437 L 301.8805180750077 215.8752322267385 L 298.91293549889014 215.9880391525508 L 295.84709805039006 216.27241821301996 L 292.69522624897314 216.73077606223734 L 289.4697909251616 217.3647427052764 L 286.18346091715574 218.17516067103927 L 282.84905004484574 219.16207759520321 L 279.4794635869688 220.32474224910723 L 276.08764448915997 221.66160403561736 L 272.68651953166915 223.17031595811414 L 269.28894568555694 224.8477410538192 L 265.90765688524897 226.68996226778617 L 262.55521144341986 228.69229572908424 L 259.2439403313018 230.84930737606905 L 255.9858965436884 233.1548328632239 L 252.79280576313724 235.60200066792763 L 249.6760185321983 238.18325830172535 L 246.64646413591998 240.8904015173031 L 243.71460638945294 243.7146063894529 L 240.89040151730313 246.64646413591998 L 238.18325830172535 249.6760185321983 L 235.60200066792763 252.7928057631372 L 233.1548328632239 255.98589654368837 L 230.84930737606905 259.2439403313018 L 228.69229572908424 262.5552114434198 L 226.68996226778617 265.90765688524897 L 224.8477410538192 269.2889456855569 L 223.17031595811414 272.68651953166915 L 221.6616040356174 276.08764448915997 L 220.32474224910726 279.4794635869688 L 219.16207759520324 282.84905004484574 L 218.17516067103927 286.1834609171557 L 217.3647427052764 289.4697909251616 L 216.73077606223734 292.69522624897314 L 216.27241821301993 295.84709805039 L 215.98803915255084 298.91293549889014 L 215.87523222673855 301.8805180750077 L 215.93082831924366 304.7379269283068 L 216.15091333296013 307.4735950710688 L 216.53084888716015 310.0763561936604 L 217.06529613746133 312.5354918933157 L 217.74824261237532 314.84077711471826 L 218.5730319472646 316.982523608291 L 219.53239638411154 318.9516212204475 L 220.61849189365176 320.73957683920526 L 221.8229357651889 322.33855082845787 L 223.1368464988426 323.74139079482165 L 224.5508858251257 324.94166254224854 L 226.05530266764472 325.9336780815054 L 227.6399788564151 326.71252057408765 L 229.29447639179836 327.2740661031255 L 231.00808605245786 327.6150021772888 L 232.76987713499642 327.7328428875509 L 234.56874810812758 327.62594065086506 L 236.39347796035236 327.2934944892902 L 238.23277801718345 326.7355548078019 L 240.07534400199336 325.95302464888715 L 241.90990811357025 324.947657416974 L 243.72529089344536 323.7220510807386 L 245.51045265701623 322.279638876283 L 247.25454426441814 320.62467654903656 L 248.94695700998938 318.7622261869325 L 250.57737141302323 316.69813671188564 L 252.13580469727492 314.43902111078825 L 253.6126567523851 311.9922305010852 L 254.99875437696758 309.3658251394331 L 256.2853936105471 306.5685424949238 L 257.46437996980933 303.6097625208163 L 258.52806641369125 300.4994702706123 L 259.4693888716602 297.2482160155786 L 260.2818991800645 293.86707303142117 L 260.9597952826398 290.3675932316997 L 261.4979485630778 286.76176083470097 L 261.8919281899486 283.0619442588203 L 262.13802236717856 279.280846449001 L 262.2332563966465 275.4314538434189 L 262.1754074732293 271.52698419534454 L 261.96301614674053 267.58083346994044 L 261.59539439959866 263.60652203964764 L 261.07263030367744 259.61764040474867 L 260.3955892345656 255.62779466766568 L 259.5659116363317 251.65055199055297 L 258.5860073447917 247.6993862657554 L 257.45904649214395 243.78762422774835 L 256.188947030609 239.92839223323617 L 254.78035892732376 236.13456393318532 L 253.23864509712848 232.41870905671297 L 251.56985915399056 228.79304352195763 L 249.7807200755712 225.26938108335088 L 247.87858388879494 221.85908671810458 L 245.8714124971799 218.57303194726455 L 243.76773978306557 215.4215522783823 L 241.57663512968168 212.41440694776225 L 239.30766451919308 209.56074113039142 L 236.97084937337561 206.86905077508982 L 234.57662331338219 204.34715021118407 L 232.13578702411138 202.00214266114713 L 229.65946141694644 199.84039378121759 L 227.15903929205626 197.8675083390629 L 224.646135708016 196.08831012414225 L 222.13253727217625 194.5068251726072 L 219.63015056996815 193.1262683744182 L 217.15094995515426 191.94903351590793 L 214.7069249259074 190.9766867963503 L 212.3100273135022 190.20996384226615 L 209.9721185113417 189.64877022826542 L 207.70491697199685 189.29218549826368 L 205.51994619891448 189.13847066598223 L 203.42848345746106 189.18507915880144 L 201.44150942700915 189.4286711543587 L 199.56965901186726 189.865131244826 L 197.82317352400926 190.48958934962394 L 196.21185444480435 191.2964447834982 L 194.74501896629621 192.2793933734544 L 193.43145750507617 193.43145750507625 L 192.2793933734544 194.7450189662962 L 191.2964447834982 196.21185444480432 L 190.48958934962388 197.8231735240093 L 189.86513124482593 199.56965901186726 L 189.42867115435865 201.44150942700918 L 189.18507915880147 203.428483457461 L 189.13847066598225 205.51994619891443 L 189.29218549826368 207.7049169719968 L 189.6487702282654 209.9721185113417 L 190.20996384226612 212.31002731350216 L 190.97668679635026 214.70692492590734 L 191.9490335159079 217.15094995515423 L 193.12626837441817 219.63015056996812 L 194.50682517260714 222.13253727217625 L 196.0883101241422 224.646135708016 L 197.86750833906285 227.15903929205624 L 199.84039378121764 229.65946141694639 L 202.00214266114716 232.13578702411135 L 204.34715021118404 234.57662331338213 L 206.8690507750898 236.9708493733756 L 209.5607411303914 239.30766451919305 L 212.41440694776222 241.57663512968168 L 215.42155227838228 243.76773978306557 L 218.5730319472645 245.87141249717985 L 221.85908671810446 247.87858388879488 L 225.26938108335077 249.7807200755712 L 228.79304352195766 251.56985915399054 L 232.418709056713 253.23864509712845 L 236.13456393318532 254.78035892732373 L 239.92839223323614 256.188947030609 L 243.7876242277483 257.4590464921439 L 247.69938626575535 258.5860073447917 L 251.65055199055294 259.56591163633163 L 255.62779466766563 260.3955892345656 L 259.61764040474856 261.07263030367744 Z" stroke="blue" stroke-width="1" fill-opacity="0"/>
    <path id="spirograph" d="M 270.95096608115546 255.24794380673976 L 275.12902796578413 255.8592675312962 L 279.27084634979644 256.32189688209917 L 283.36269133492135 256.636251915586 L 287.39096630979213 256.8035174087757 L 291.342261969417 256.8256350757276 L 295.20340962349934 256.7052924066022 L 298.96153356973645 256.4459081801649 L 302.6041023121276 256.0516147149601 L 306.1189784091622 255.52723693848878 L 309.4944667425136 254.87826836748283 L 312.71936100351314 254.11084410572926 L 315.7829882021904 253.23171097879563 L 318.6752510120094 252.24819493739324 L 321.3866677725711 251.1681658729297 L 323.90840998244846 250 L 326.23233712493413 248.75253997109476 L 328.35102868076115 247.43505289862225 L 330.2578131937618 246.0571864684041 L 331.94679426790196 244.6289233370738 L 333.412873387122 243.16053401325004 L 334.6517694628674 241.66252842893505 L 335.66003502805046 240.1456064132808 L 336.43506901038705 238.62060728564362 L 336.9751260325426 237.09845878869058 L 337.27932220122983 235.59012558521493 L 337.3476373622731 234.1065575442478 L 337.18091381362046 232.65863804301082 L 336.78085148328654 231.25713251123958 L 336.149999594174 229.91263744341276 L 335.29174485259927 228.63553010246 L 334.2102962120574 227.4359191355936 L 332.91066627825796 226.3235963190322 L 331.39864943566863 225.30798964357325 L 329.68079678967115 224.3981179472469 L 327.7643880318925 223.60254729466996 L 325.6574003492775 222.92934929524503 L 323.36847450995015 222.38606154404778 L 320.9068782708266 221.97965036014907 L 318.282467263237 221.71647598727034 L 315.505643523437 221.6022604111082 L 312.5873118448031 221.642057936437 L 309.5388341376577 221.84022865525228 L 306.3719819910341 222.20041492480252 L 303.0988876382154 222.7255209614296 L 299.7319935345518 223.41769564274935 L 296.2840007618323 224.27831859691486 L 292.76781647834804 225.30798964357325 L 289.1965006377047 226.50652163671103 L 285.58321220241316 227.87293674495095 L 281.9411550802901 229.40546619006923 L 278.28352401272963 231.10155344961655 L 274.62345064395976 232.9578609146104 L 270.97394999946994 234.9702799783829 L 267.34786759989544 237.1339445178826 L 263.75782743377675 239.4432477141058 L 260.2161810087927 241.89186214393033 L 256.7349576963087 244.47276306151122 L 253.32581657840672 247.1782547736267 L 250.00000000000003 250 L 246.7682890212044 252.92905209671952 L 243.64096095687748 255.95589000849628 L 240.62774918118077 259.0704558036842 L 237.73780536520255 262.2621946347975 L 234.97966430515243 265.52009695673684 L 232.3612114874361 268.83274282513054 L 229.88965352509825 272.1883480881451 L 227.5714915877287 275.5748122768678 L 225.41249793401454 278.9797679919402 L 223.4176956427493 282.3906315775626 L 221.59134162432994 285.7946548683233 L 219.9369129806471 289.17897778955387 L 218.457096766865 292.53068158809816 L 217.15378319395188 295.83684246752046 L 216.02806229602498 299.0845853998838 L 215.08022407168437 302.26113788530483 L 214.3097620935787 305.3538834305511 L 213.7153805655532 308.35041451897655 L 213.2950047919233 311.2385848461016 L 213.04579500877577 314.00656059811575 L 212.9641635127706 316.6428705545051 L 213.04579500877577 319.1364548008712 L 213.2856700838662 321.4767118437816 L 213.67809170181695 323.6535439261632 L 214.21671459928407 325.6574003492775 L 214.89457745243905 327.4793186156794 L 215.70413767096403 329.1109632167162 L 216.6373086650787 330.54466189803446 L 217.68549942069455 331.77343924718986 L 218.83965620793234 332.79104745874474 L 220.09030623913097 333.59199414415536 L 221.42760308416342 334.1715670662316 L 222.84137364338875 334.52585569095083 L 224.32116647194587 334.65176946286743 L 225.8563012433579 334.54705272422154 L 227.43591913559362 334.2102962120574 L 229.04903391884454 333.6409450821491 L 230.68458352133973 332.8393034232463 L 232.33148184754148 331.8065352400173 L 233.9786706220678 330.5446618980344 L 235.6151710326542 329.05655603914147 L 237.23013494641953 327.345931990504 L 238.81289547561977 325.4173327055122 L 240.35301667195262 323.27611328940736 L 241.8403421323168 320.92842117699 L 243.26504230369127 318.3811730439596 L 244.61766028048376 315.64202854729365 L 245.8891558942707 312.7193610035132 L 247.07094790328046 309.6222251266753 L 248.15495409723303 306.3603219603907 L 249.1336291422053 302.94396115006765 L 250 299.3840207128535 L 250.747698767016 295.6919044733497 L 251.37099278881107 291.87949734306676 L 251.86481191835253 287.959118630715 L 252.2247727983297 283.94347357876285 L 252.44720006079518 279.84560332919625 L 252.52914435075303 275.67883352805416 L 252.46839709406598 271.45672178405715 L 252.26350194415545 267.1930042014802 L 251.91376285634627 262.9015412113095 L 251.41924875331267 258.5962629276612 L 250.78079475984342 254.2911142584143 L 249.99999999999997 250.00000000000003 L 249.07922196463062 245.73673014631416 L 248.02156747205757 241.51496564075072 L 246.83088025951508 237.34816479842092 L 245.51172525751485 233.24953062271743 L 244.06936961369215 229.2319592365234 L 242.50976054677977 225.30798964357328 L 240.8395001251053 221.48975502975577 L 239.06581707735 217.78893580754612 L 237.19653575619338 214.21671459928407 L 235.24004238783365 210.78373334670985 L 233.20524875217075 207.5000527250745 L 231.10155344961652 204.37511403028122 L 228.93880092100736 201.41770369694177 L 226.72723839688598 198.63592059399068 L 224.47747096146142 196.03714623263338 L 222.2004149248025 193.6280180089659 L 219.90724970423088 191.41440559065327 L 217.60936842243737 189.40139054363027 L 215.31832743550555 187.59324928096868 L 213.04579500877583 185.99343940188422 L 210.80349936229536 184.60458947440014 L 208.60317631046303 183.42849230050655 L 206.45651672237204 182.46610168781427 L 204.37511403028122 181.71753273676302 L 202.370412013594 181.18206563747242 L 200.45365308469349 180.8581529553855 L 198.63582730098545 180.74343037000307 L 196.92762232453424 180.83473081632198 L 195.33937454676288 181.12810196411957 L 193.88102159083786 181.6188269560403 L 192.56205639859593 182.30144831159686 L 191.3914831022162 183.1697948907575 L 190.3777748733247 184.21701179780965 L 189.52883393388 185.43559309371992 L 188.85195390404277 186.81741717331843 L 188.35378465234896 188.35378465234905 L 188.0402998028974 190.0354585988188 L 187.91676704299175 191.85270693318037 L 187.98772136278745 193.79534681273572 L 188.25694134603975 195.85279080729555 L 188.72742861806833 198.01409466561347 L 189.4013905436302 200.26800646544825 L 190.28022625355354 202.60301693433885 L 191.36451606481046 205.00741072332227 L 192.6540143442461 207.4693184119018 L 194.14764585150553 209.97676901960335 L 195.8435055818585 212.51774279745408 L 197.73886211469514 215.0802240716843 L 199.8301644585042 217.65225391189514 L 202.11305236821528 220.22198239686003 L 204.58237009596235 222.77772025301746 L 207.23218352165193 225.30798964357325 L 210.05580059527935 227.80157388993928 L 213.04579500877577 230.2475659119823 L 216.19403300135735 232.63541517921576 L 219.49170318894068 234.95497297162063 L 222.92934929524495 237.19653575619333 L 226.49690564977692 239.35088649356297 L 230.18373530603864 241.40933369806027 L 233.97867062206788 243.363748084414 L 237.87005613486107 245.20659664476022 L 241.84579355037866 246.93097401082753 L 245.8933886617499 248.53063096795898 L 249.99999999999997 249.99999999999997 L 254.15248901416498 251.3342177569663 L 258.3374715710649 252.529144350753 L 262.5413705593041 253.58137939789484 L 266.7504693772825 254.4882747424851 Z" stroke="blue" stroke-width="1" fill-opacity="0"/>
    <path id="spirograph" d="M 279.6304124277121 250.09939845497536 L 283.9722829098447 250.9974622990518 L 288.2684403124674 251.75203791219235 L 292.50498946722234 252.36323272746426 L 296.6681788098935 252.83191365841313 L 300.74445456580474 253.1596996558979 L 304.7205142128421 253.34895089277464 L 308.5833589980624 253.40275462689968 L 312.3203452877677 253.3249078073047 L 315.9192345357727 253.11989650249643 L 319.36824166036456 252.79287224358978 L 322.6560816271114 252.34962538833844 L 325.7720140422045 251.7965556250233 L 328.7058855693721 251.14063974753898 L 331.4481699925583 250.38939684483202 L 333.9900057564698 249.5508510590402 L 336.3232308277184 248.6334920772088 L 338.4404147305822 247.64623353127678 L 340.3348876233258 246.5983694900881 L 342.0007662935065 245.4995292354525 L 343.43297696369757 244.3596305217212 L 344.627274812528 243.18883152492324 L 345.5802601298085 241.9974816932012 L 346.28939103872904 240.796071715062 L 346.7529927326167 239.5951828258065 L 346.9702631884648 238.40543567539333 L 346.9412753343281 237.2374389829283 L 346.6669756626607 236.10173820392885 L 346.1491792966841 235.00876443650256 L 345.39056153185527 233.968783791587 L 344.3946458893905 232.99184745044047 L 343.16578873352563 232.08774262965025 L 341.70916051870057 231.26594467005208 L 340.0307237470747 230.53557046114983 L 338.13720773065813 229.90533340690405 L 336.03608026581475 229.38350013215276 L 333.7355163409077 228.9778491214581 L 331.2443640103497 228.6956314738787 L 328.572107580249 228.54353394807953 L 325.7288282621446 228.5276444623471 L 322.7251624619612 228.65342020352688 L 319.5722578812352 228.92565848767967 L 316.28172761682816 229.34847050341426 L 312.86560245371436 229.92525805645192 L 309.3362815529665 230.65869342105483 L 305.7064817437402 231.55070239057633 L 301.989185633839 232.60245060560845 L 298.1975887583128 233.8143332240817 L 294.3450459894691 235.1859679832677 L 290.44501743465753 236.71619168901154 L 286.51101405019693 238.40306015274018 L 282.5565432008514 240.2438515819175 L 278.59505439432235 242.23507341471176 L 274.6398854192996 244.37247257477065 L 270.70420911372304 246.65104910722533 L 266.80098098704195 249.06507314243177 L 262.9428879164481 251.60810511957038 L 259.142298132301 254.27301918812176 L 255.41121270229974 257.0520296914776 L 251.76121871739088 259.93672062359826 L 248.2034443749767 262.91807793673365 L 244.74851614673176 265.98652456585893 L 241.40651820927843 269.13195802367136 L 238.18695430616233 272.34379040881885 L 235.09871219903837 275.6109906595211 L 232.15003085478156 278.92212887495157 L 229.34847050341426 282.26542251770906 L 226.70088568935 285.6287843024724 L 224.21340142554337 288.9998715685158 L 221.8913925467611 292.3661369272232 L 219.73946634440958 295.71487997008137 L 217.76144855122868 299.0332998178959 L 215.9603727297491 302.3085482881723 L 214.33847310377342 305.5277834547554 L 212.8971808573445 308.6782233719388 L 211.63712391076638 311.7471997343451 L 210.55813016831576 314.72221124394866 L 209.65923421737892 317.5909764566578 L 208.93868744394283 320.34148588289287 L 208.39397151471914 322.96205311958397 L 208.02181516175068 325.44136479494773 L 207.81821419119922 327.76852911227724 L 207.77845462420908 329.93312278476856 L 207.89713886433407 331.9252361600855 L 208.16821477307104 333.7355163409077 L 208.58500752260812 335.355208116079 L 209.14025408303354 336.7761925261385 L 209.82614019000198 337.991022896942 L 210.63433962827577 338.992958185714 L 211.5560556566897 339.77599349517686 L 212.58206439096898 340.3348876233258 L 213.702759952514 340.6651875289118 L 214.9082011837635 340.76324960570196 L 216.1881597241188 340.6262576720558 L 217.53216923466437 340.25223759622827 L 218.92957555508517 339.6400684920221 L 220.36958757228788 338.7894904339135 L 221.84132857727917 337.70110865549077 L 223.33388788487048 336.3763942099241 L 224.8363724897668 334.8176810861562 L 226.33795853255285 333.028159789504 L 227.82794235003175 331.0118674103337 L 229.29579088627705 328.77367421933974 L 230.73119124362668 326.3192668426726 L 232.1240991566767 323.65512808464536 L 233.46478617708075 320.788513479952 L 234.74388536263282 317.72742467118667 L 235.95243527067245 314.480579720904 L 237.08192206326638 311.0573804804476 L 238.12431953987033 307.4678771502449 L 239.07212692221816 303.72273017816536 L 239.91840422597863 299.8331696538133 L 240.65680506423172 295.81095236723564 L 241.2816067389901 291.6683167104122 L 241.78773748878857 287.4179356090311 L 242.1708007727251 283.0728676803841 L 242.4270964842196 278.6465068207251 L 242.55363900109245 274.15253043206593 L 242.5481719923079 269.6048465041368 L 242.40917991581347 265.01753977206187 L 242.13589615627214 260.4048171741935 L 241.7283077660777 255.78095283748283 L 241.18715678778835 251.1602328197338 L 240.51393815095972 246.556899839082 L 239.71089415123305 241.9850982210512 L 238.7810055343763 237.45881929257644 L 237.72797922272383 232.99184745044047 L 236.55623273604664 228.5977071286608 L 235.27087537324957 224.28961088550352 L 233.87768623537374 220.08040882599673 L 232.38308918411835 215.98253957009854 L 230.7941248434277 212.0079829700633 L 229.11841976456319 208.16821477307104 L 227.3641528874341 204.47416341687892 L 225.5400194427484 200.93616913714405 L 223.65519245070894 197.56394555520453 L 221.71928198248324 194.36654390452298 L 219.74229236045386 191.35232004274803 L 217.73457748229094 188.5289043844714 L 215.70679446212228 185.90317487731653 L 213.66985578947975 183.48123313102806 L 211.63488021324898 181.26838379580323 L 209.61314256349885 179.26911727227514 L 207.6160227288111 177.48709582137576 L 205.65495401053093 175.92514312784348 L 203.74137107821858 174.58523735644602 L 201.88665775246523 173.46850772514335 L 200.10209484215954 172.57523460446197 L 198.39880826323144 171.90485313737108 L 196.7877176648638 171.45596035899774 L 195.27948578715788 171.22632578066035 L 193.88446877126896 171.21290538799605 L 192.61266763910754 171.41185898847942 L 191.4736811548455 171.8185708294298 L 190.47666027470288 172.42767339374592 L 189.63026438482535 173.23307426715925 L 188.94261951955235 174.22798595779557 L 188.4212787440257 175.4049585363573 L 188.07318487594506 176.75591495333128 L 187.90463571138915 178.2721888783277 L 187.9212519090116 179.94456489603442 L 188.12794767564625 181.76332088335937 L 188.52890438447145 183.71827238317178 L 189.12754724441845 185.79881878169098 L 189.92652512653947 187.99399108903788 L 190.92769363961838 190.29250111578762 L 192.1321015334739 192.6827918325808 L 193.53998049422881 195.15308869498028 L 195.15073838136198 197.6914517118277 L 196.9629559416839 200.28582803236839 L 198.97438702053896 202.924104825399 L 201.18196227561333 205.59416222264403 L 203.5817963837672 208.28392609849757 L 206.1691987163895 210.98142045917876 L 208.9386874439428 213.6748192162262 L 211.88400701570856 216.352497122105 L 214.99814894629924 219.00307964949667 L 218.2733758263523 221.61549160057623 L 221.70124846101447 224.1790042382288 L 225.27265602642348 226.68328073769834 L 228.97784912145798 229.1184197645631 L 232.806475579608 231.47499699316344 L 236.74761889396913 233.74410438863794 L 240.7898390971446 235.91738708550642 L 244.92121592727975 237.98707770623608 L 249.12939410162127 239.9460279743954 L 253.40163050991188 241.78773748878854 L 257.7248431316494 243.50637953731973 L 262.0856614737902 245.09682384221517 L 266.4704783188919 246.55465614156458 L 270.8655025679976 247.87619452588814 L 275.25681295779094 249.05850246252032 Z" stroke="blue" stroke-width="1" fill-opacity="0"/>
    <path id="spirograph" d="M 289.4733599035157 246.34601623520746 L 293.9327675720106 247.56814190080155 L 298.33579622453647 248.65045153763734 L 302.6684362523242 249.5927016329806 L 306.916833194644 250.39540459809103 L 311.067342034388 251.05982170466706 L 315.1065807587965 251.58795265254145 L 319.021482961188 251.98252181868796 L 322.79934926347823 252.24696125197846 L 326.42789734414066 252.38539049222675 L 329.89531036204136 252.40259330580977 L 333.19028357325703 252.3039914435101 L 336.3020689455219 252.0956155391178 L 339.2205175833218 251.78407327970965 L 341.9361197858169 251.37651499033635 L 344.44004256970425 250.88059678704337 L 346.7241644997642 250.3044414626788 L 348.7811076811482 249.65659727975887 L 350.6042667793946 248.94599485372635 L 352.1878349466578 248.1819023182059 L 353.52682654565933 247.37387897130657 L 354.6170965763446 246.53172760860215 L 355.45535672411734 245.66544575411677 L 356.03918796275275 244.78517600542534 L 356.36704965960337 243.90115571282735 L 356.438285145451 243.02366621545139 L 356.25312372625433 242.1629818590872 L 355.8126791290324 241.32931902150543 L 355.11894438915465 240.53278537102068 L 354.17478320129555 239.7833295830684 L 352.98391777121606 239.09069173761313 L 351.55091322026766 238.46435461729203 L 349.8811586090342 237.91349612232997 L 347.9808446607585 237.4469430134657 L 345.856938279089 237.07312618841783 L 343.51715396816326 236.80003769082046 L 340.9699222760729 236.6351896430978 L 338.22435539525407 236.58557528646438 L 335.29021006528785 236.6576323021552 L 332.1778479349068 236.85720857815912 L 328.89819355065094 237.1895305751873 L 325.4626901495451 237.65917443439616 L 321.8832534423461 238.27003995756044 L 318.1722235822833 239.0253275779953 L 314.34231552176584 239.92751842761987 L 310.4065679662085 240.97835759218728 L 306.378291139925 242.17884063293835 L 302.2710135839054 243.5292034388269 L 298.09842820923694 245.0289154590713 L 293.87433783290777 246.67667635117746 L 289.6126004247519 248.47041606480929 L 285.327074295335 250.4072983670194 L 281.0315634546444 252.48372779946232 L 276.73976337053045 254.69536004335387 L 272.4652073539562 257.0371156531798 L 268.2212137952537 259.5031971055574 L 264.0208344717744 262.087109095281 L 259.87680414257073 264.78168199648974 L 255.80149164007977 267.5790983931544 L 251.80685266221917 270.47092256974383 L 247.90438446088223 273.4481328400511 L 244.10508261456107 276.50115657980865 L 240.4194000637741 279.61990781693004 L 236.85720857815917 282.7938272220533 L 233.42776281356836 286.01192433156695 L 230.1396671062995 289.2628218255176 L 227.00084513977603 292.53480167377785 L 224.0185126065966 295.8158529556237 L 221.199152975958 299.0937211504776 L 218.54849646308222 302.35595869103975 L 216.07150228349397 305.58997656439016 L 213.77234426086534 308.7830967419196 L 211.65439984272822 311.9226052151589 L 209.7202425637154 314.9958054117416 L 207.9716379811856 317.990071763865 L 206.40954309318985 320.8929032007168 L 205.03410923379752 323.6919763364192 L 203.84468842589752 326.37519812609804 L 202.8398431567702 328.93075776471846 L 202.01735952707733 331.347177606326 L 201.3742637094728 333.6133628852814 L 200.9068416388834 335.7186500259611 L 200.6106618426952 337.65285333319946 L 200.48060130566643 339.406309862434 L 200.51087425143135 340.96992227607285 L 200.69506371002245 342.3351995009833 L 201.02615572895792 343.49429501117737 L 201.49657607418987 344.44004256970425 L 202.0982292566154 345.1659892744037 L 202.82253970997323 345.6664257634867 L 203.6604949368228 345.9364134488437 L 204.60269043097063 345.9718086574809 L 205.63937617719841 345.7692835745013 L 206.76050452250792 345.32634389452414 L 207.95577920733447 344.6413431023143 L 209.21470534033998 343.7134933176148 L 210.5266400964843 342.54287265368146 L 211.8808439151132 341.13042905374095 L 213.26653197280137 339.4779805844791 L 214.67292570466498 337.58821218063986 L 216.08930414780232 335.4646688498261 L 217.50505488144853 333.11174536156454 L 218.90972434032264 330.53467245957296 L 220.29306728050102 327.73949965088434 L 221.6450951809661 324.7330746399716 L 222.9561233687128 321.5230194902217 L 224.21681666095603 318.11770360896674 L 225.41823332452685 314.52621366573237 L 226.55186715994887 310.75832056635306 L 227.6096875259206 306.82444361807427 L 228.58417712895948 302.73561203266104 L 229.46836741274416 298.5034239258101 L 230.25587139218595 294.1400029817657 L 230.940913788424 289.65795296193016 L 231.5183583327197 285.07031024539276 L 231.9837321195738 280.3904945976307 L 232.33324690225783 275.6322583711397 L 232.5638172372759 270.8096343483871 L 232.6730753979991 265.93688244322124 L 232.65938299178973 261.0284354816984 L 232.52183922928552 256.09884428717265 L 232.2602858090915 251.1627222974248 L 231.87530839586216 246.23468994357495 L 231.368234684588 241.32931902150546 L 230.7411290587625 236.46107728653297 L 229.99678386493605 231.64427350109503 L 229.13870734089826 226.89300316326785 L 228.17110824930458 222.22109514101902 L 227.09887728291594 217.64205943322565 L 225.9275653216899 213.16903627368077 L 224.66335863568747 208.81474678858476 L 223.31305114107926 204.59144541139563 L 221.88401382939804 200.51087425143135 L 220.38416150252976 196.58421960429325 L 218.82191695770953 192.82207078306843 L 217.2061727779467 189.2343814393924 L 215.54625089379348 185.83043353286263 L 213.85186009214397 182.61880409603154 L 212.13305165677303 179.6073349303252 L 210.4001733335532 176.80310535577314 L 208.66382182068048 174.21240812446294 L 206.93479399078063 171.84072859419234 L 205.22403705741283 169.69272724494525 L 203.54259790321842 167.77222560663057 L 201.90157179076303 166.0821956520399 L 200.31205067996834 164.6247526942801 L 198.78507137791027 163.40115181307416 L 197.3315637476759 162.41178781936014 L 195.96229920290935 161.65619875262055 L 194.68783971363297 161.13307289041452 L 193.5184875469247 160.8402592347059 L 192.46423596305732 160.77478142487038 L 191.53472108378128 160.93285501276887 L 190.7391751445758 161.30990802106186 L 190.08638133692284 161.90060469206912 L 189.58463043999703 162.69887232101365 L 189.24167943364682 163.69793105447812 L 189.0647122761963 164.89032652240758 L 189.06030302144936 166.26796516007263 L 189.2343814393925 167.82215206509315 L 189.59220129448158 169.54363122398865 L 190.13831142412835 171.42262793279332 L 190.87652974810968 173.44889322710299 L 191.80992032717182 175.61175012853965 L 192.94077357612485 177.9001415070761 L 194.27058972329726 180.3026793519711 L 195.80006559438942 182.80769523827195 L 197.52908478459216 185.4032917709565 L 199.4567112683828 188.0773947848411 L 201.58118648174192 190.81780607538215 L 203.89992989669807 193.61225643347282 L 206.40954309318988 196.44845875627232 L 209.10581731828532 199.31416100602704 L 211.98374450787088 202.1971987897385 L 215.03753173111545 205.08554733440064 L 218.26061900335034 207.96737263536298 L 221.6457003985771 210.83108155916304 L 225.18474837866813 213.66537068689237 L 228.86904124252823 216.4592736897979 L 232.68919358509112 219.20220703534986 L 236.63518964309787 221.88401382939801 L 240.6964193921937 224.4950056082591 L 244.86171724804476 227.02600190359908 L 249.11940321295663 229.46836741274416 L 253.4573262989401 231.81404661754632 L 257.86291004833777 234.0555957060855 L 262.32319996405806 236.18621166327063 L 266.82491265319277 238.1997584087507 L 271.3544864803552 240.09078987341582 L 275.89813352050277 241.8545699190962 L 280.4418925953275 243.48708901980208 L 284.9716831725363 244.9850776369278 Z" stroke="blue" stroke-width="1" fill-opacity="0"/>
    <path id="spirograph" d="M 300.2831488843767 244.1612955600677 L 304.80825091318576 245.73827733342262 L 309.2653281860629 247.1774025428311 L 313.6403132176225 248.47804558850652 L 317.9193062030443 249.64033510556067 L 322.0886293622109 250.6651473114054 L 326.1348805355183 251.55409598577435 L 330.044985807179 252.3095191329822 L 333.80625093578226 252.9344623904195 L 337.40641137675425 253.4326592613755 L 340.8336806871565 253.80850826403702 L 344.0767971099533 254.06704710186423 L 347.1250681424269 254.21392397344016 L 349.96841290180885 254.25536615227088 L 352.59740211037354 254.1981459788294 L 355.0032955321813 254.04954441833164 L 357.1780767043088 253.8173123482652 L 359.1144848167298 253.50962974951128 L 360.80604360695355 253.1350629839682 L 362.2470871480405 252.70252034985864 L 363.4327824216518 252.2212061133528 L 364.35914858127757 251.70057322172585 L 365.02307282469224 251.1502749089699 L 365.4223228089239 250.58011540956892 L 365.55555555555554 250 L 365.4223228089239 249.41988459043105 L 365.0230728246923 248.84972509103014 L 364.35914858127757 248.29942677827415 L 363.4327824216518 247.77879388664718 L 362.2470871480405 247.29747965014138 L 360.80604360695355 246.8649370160318 L 359.1144848167298 246.49037025048872 L 357.1780767043088 246.18268765173482 L 355.0032955321813 245.95045558166834 L 352.59740211037354 245.80185402117058 L 349.96841290180885 245.7446338477291 L 347.1250681424269 245.7860760265598 L 344.0767971099533 245.93295289813577 L 340.8336806871565 246.19149173596298 L 337.40641137675425 246.56734073862452 L 333.8062509357823 247.0655376095805 L 330.04498580717905 247.69048086701778 L 326.1348805355183 248.44590401422565 L 322.08862936221095 249.3348526885946 L 317.9193062030443 250.3596648944394 L 313.6403132176226 251.52195441149348 L 309.2653281860629 252.82259745716888 L 304.8082509131858 254.26172266657738 L 300.2831488843767 255.8387044399323 L 295.70420240028676 257.5521596923526 L 291.0856494195582 259.3999480263357 L 286.4417303398091 261.37917533231774 L 281.7866329471748 263.4862008078626 L 277.1344377637921 265.71664737117686 L 272.4990640207233 268.0654154299016 L 267.89421648095947 270.5266999515484 L 263.33333333333337 273.094010767585 L 258.829535373422 275.76019602910327 L 254.3955766818525 278.51746871826964 L 250.04379700386505 281.35743610644016 L 245.78607602655984 284.2711320369561 L 241.63378974199983 287.24905189829565 L 237.59776907528106 290.2811901414866 L 233.68826094687088 293.35708018453033 L 229.91489192798198 296.4658365361115 L 226.2866346365471 299.5961989610992 L 222.81177700953413 302.7365785013368 L 219.49789457494387 305.87510515700643 L 216.3518258339118 308.99967702647007 L 213.37965084995852 312.09801069597273 L 210.58667312864088 315.15769266496505 L 207.97740485672173 318.1662315880908 L 205.55555555555557 321.1111111111111 L 203.3240241887358 323.97984307521455 L 201.28489474924274 326.76002086230295 L 199.439435336421 329.43937265296194 L 197.78810071817105 332.0058143689163 L 196.33053835882458 334.447502072843 L 195.06559787835153 336.75288360045596 L 193.9913438938807 338.9107492027882 L 193.10507218006802 340.91028098055597 L 192.40332907068063 342.74110089738383 L 191.8819340099425 344.39331716448396 L 191.5360051487578 345.8575687960796 L 191.35998786796932 347.1250681424269 L 191.34768609835112 348.18764121568256 L 191.49229629515006 349.03776563304604 L 191.78644391372453 349.6686060115517 L 192.2222222222222 350.0740466595351 L 192.79123327735158 350.24872142112065 L 193.48463088015762 350.188040542016 L 194.2931653203713 349.8882144374084 L 195.20722971037895 349.34627425577975 L 196.21690770320168 348.5600891459382 L 197.31202238310394 347.5283801484522 L 198.48218611258955 346.2507306468952 L 199.71685111562323 344.7275933288211 L 201.00536057393805 342.9602936211199 L 202.337000011275 340.9510295792854 L 203.70104873936663 338.70286822511395 L 205.08683113940202 336.21973834235655 L 206.48376755362563 333.5064197548262 L 207.88142456360077 330.56852912633997 L 209.26956443451004 327.41250233659014 L 210.63819350866208 324.0455735015306 L 211.97760933609928 320.475750721073 L 213.2784463358409 316.7117886507395 L 214.5317197878305 312.76315800737814 L 215.7288679630439 308.6400121320307 L 216.8617922074336 304.353150745513 L 217.92289480440292 299.913981044168 L 218.90511445026715 295.3344762945219 L 219.80195918764133 290.62713209617937 L 220.60753665284238 285.80492049217764 L 221.3165815051608 280.8812421151509 L 221.92447991819108 275.86987656597796 L 222.42729102626538 270.7849312290935 L 222.8217652323429 265.6407887352634 L 223.10535929742417 260.452053288368 L 223.27624814561858 255.2334960775549 L 223.33333333333331 250.00000000000003 L 223.27624814561858 244.76650392244517 L 223.10535929742423 239.54794671163205 L 222.8217652323429 234.35921126473662 L 222.42729102626538 229.2150687709065 L 221.92447991819108 224.1301234340221 L 221.31658150516077 219.11875788484917 L 220.60753665284238 214.19507950782238 L 219.80195918764133 209.3728679038207 L 218.90511445026715 204.6655237054781 L 217.92289480440292 200.08601895583206 L 216.86179220743367 195.646849254487 L 215.72886796304397 191.35998786796932 L 214.53171978783044 187.23684199262195 L 213.2784463358409 183.28821134926054 L 211.97760933609928 179.52424927892707 L 210.63819350866208 175.95442649846945 L 209.26956443451004 172.58749766340992 L 207.88142456360077 169.43147087366003 L 206.48376755362568 166.4935802451738 L 205.08683113940197 163.7802616576435 L 203.70104873936657 161.29713177488614 L 202.3370000112749 159.0489704207147 L 201.00536057393805 157.03970637888014 L 199.71685111562323 155.2724066711789 L 198.48218611258946 153.74926935310486 L 197.31202238310402 152.47161985154776 L 196.2169077032018 151.4399108540618 L 195.20722971037895 150.65372574422025 L 194.2931653203713 150.1117855625916 L 193.48463088015762 149.81195945798405 L 192.7912332773515 149.7512785788794 L 192.22222222222229 149.92595334046484 L 191.78644391372453 150.3313939884483 L 191.49229629515006 150.96223436695396 L 191.34768609835118 151.81235878431735 L 191.35998786796912 152.87493185757313 L 191.5360051487575 154.14243120392055 L 191.88193400994263 155.60668283551598 L 192.40332907068074 157.25889910261614 L 193.10507218006794 159.08971901944403 L 193.99134389388075 161.08925079721172 L 195.06559787835153 163.24711639954404 L 196.33053835882455 165.55249792715696 L 197.78810071817102 167.99418563108367 L 199.4394353364209 170.56062734703812 L 201.28489474924254 173.23997913769705 L 203.32402418873568 176.0201569247854 L 205.55555555555543 178.88888888888886 L 207.97740485672176 181.83376841190923 L 210.58667312864097 184.8423073350349 L 213.37965084995864 187.9019893040272 L 216.3518258339118 191.00032297352993 L 219.4978945749438 194.12489484299354 L 222.8117770095341 197.26342149866315 L 226.28663463654698 200.40380103890075 L 229.91489192798193 203.53416346388843 L 233.6882609468708 206.6429198154696 L 237.59776907528092 209.71880985851334 L 241.63378974199998 212.75094810170435 L 245.78607602655993 215.72886796304394 L 250.04379700386502 218.64256389355984 L 254.39557668185253 221.4825312817304 L 258.82953537342195 224.23980397089673 L 263.3333333333333 226.90598923241492 L 267.8942164809594 229.47330004845162 L 272.4990640207232 231.93458457009837 L 277.134437763792 234.28335262882308 L 281.78663294717467 236.51379919213733 L 286.44173033980894 238.62082466768214 L 291.0856494195582 240.6000519736643 L 295.70420240028676 242.44784030764745 Z" stroke="blue" stroke-width="1" fill-opacity="0"/>
</svg>