<?xml version="1.0" encoding="UTF-8"?>
<svg xmlns="http://www.w3.org/2000/svg" version="1.1" baseProfile="full" width="500" height="500">
    <path stroke="blue" stroke-width="1" fill-opacity="0"
d = " M 330.8290376865476 232.49999999999997 L 333.2623865476623 233.66217184048463 L 335.67124785571934 234.73029352082366 L 338.04924973871863 235.7046509587343 L 340.3900690655601 236.58589894074956 L 342.6874535912105 237.37505785112367 L 344.9352438620399 238.0735090847662 L 347.12739480302025 238.68298916083447 L 349.2579969096122 239.2055825582666 L 351.3212969685786 239.64371329911444 L 353.31171823364804 240.00013531001963 L 355.2238799838965 240.27792159655127 L 357.0526163949259 240.4804522693745 L 358.79299465537173 240.61140146533126 L 360.44033226397164 240.6747232104716 L 361.9902134453573 240.67463627586199 L 363.4385046258822 240.6156080806052 L 364.7813689141604 240.50233769991672 L 366.01527953455036 240.3397380393083 L 367.13703216556365 240.1329172389159 L 368.14375613909283 239.88715937476383 L 369.0329244604305 239.60790452627845 L 369.80236261326723 239.30072828162986 L 370.4502561182021 238.97132075449753 L 370.9751568177601 238.62546518760212 L 371.37598786546306 238.26901621982776 L 371.6520474011402 237.90787789496397 L 371.80301089935983 237.5479814910205 L 371.82893218261347 237.19526324971247 L 371.73024309565835 236.85564208607133 L 371.50775184221334 236.53499735820793 L 371.16263998998954 236.2391467770384 L 370.696458154799 235.9738245352861 L 370.11112037921094 235.7446597342834 L 369.40889722589367 235.55715518603608 L 368.59240761037944 235.4166666666667 L 367.6646094024968 235.3283826957383 L 366.62878883012047 235.29730491407966 L 365.48854872317213 235.3282291305873 L 364.2477956399542 235.42572710608627 L 362.9107259218953 235.59412913969638 L 361.4818107266192 235.8375075202697 L 359.9657800929026 236.15966090237833 L 358.3676060945497 236.56409966301334 L 356.69248514346793 237.0540322916483 L 354.94581950527413 237.63235286262238 L 353.13319809357245 238.30162963492128 L 351.2603766116272 239.06409482039706 L 349.33325711248415 239.92163555728933 L 347.3578670506732 240.87578612158822 L 345.34033790044197 241.92772140435642 L 343.28688341701775 243.0782516785854 L 341.2037776186697 244.32781867455193 L 339.09733256833886 245.6764929779542 L 336.9738760343195 247.12397276036583 L 334.8397291099014 248.66958384678483 L 332.7011838720297 250.31228112025917 L 330.56448115889395 252.05065125878724 L 328.43578854592926 253.88291679492184 L 326.3211785989984 255.80694148376713 L 324.2266074825303 257.8202369603763 L 322.15789399911233 259.9199706629404 L 320.1206991354905 262.10297499362343 L 318.12050618811236 264.36575768447204 L 316.16260153927055 266.7045133315086 L 314.252056152574 269.1151360559355 L 312.3937078538926 271.59323324734214 L 310.592144461109 274.13414033993155 L 308.85168782296876 276.7329365690823 L 307.1763788240608 279.38446165205465 L 305.5699634095015 282.0833333333333 L 304.03587967923943 284.8239657320119 L 302.5772460980678 287.60058842574097 L 301.19685086343395 290.40726620313126 L 299.89714246898734 293.2379194141045 L 298.68022149752306 296.0863448455455 L 297.54783367257755 298.94623704772135 L 296.5013641934205 301.8112100353242 L 295.5418333735909 304.6748192856486 L 294.6698935984589 307.5305839553458 L 293.885827612565 310.3720092364192 L 293.18954814273127 313.19260877161827 L 292.58059885814816 315.98592704917826 L 292.0581566638593 318.7455616969213 L 291.6210353192815 321.4651855960961 L 291.2676903686612 324.13856873597234 L 290.9962253656605 326.75959973113635 L 290.8043993696374 329.322306924635 L 290.6896356866252 331.82087900159854 L 290.6490318235615 334.249685039722 L 290.67937061996827 336.6032939249969 L 290.7771325170695 338.87649306335675 L 290.9385089202569 341.06430632141786 L 291.1594166068998 343.1620111322501 L 291.43551312774906 345.16515470510586 L 291.7622131466261 347.0695692812327 L 292.1347056597283 348.87138638131296 L 292.5479720327286 350.5670499936787 L 292.99680479092007 352.15332865623753 L 293.475827094957 353.62732638900593 L 293.9795128322867 354.9864924382553 L 294.502207252161 356.2286297975302 L 295.0381480701701 357.35190247517033 L 295.5814869665566 358.3548414824553 L 296.1263114011545 359.23634952106636 L 296.66666666666663 359.99570435321425 L 297.19657810113773 360.63256084249105 L 297.71007337990363 361.1469516582658 L 298.2012048070193 361.5392866412184 L 298.66407152616114 361.81035083240005 L 299.0928415712901 361.9613011729882 L 299.48177367793187 361.9936618866597 L 299.8252387767855 361.9093185612186 L 300.1177410925096 361.7105109507682 L 300.3539387719456 361.3998245242941 L 300.52866396771924 360.9801807910089 L 300.63694230511294 360.45482643718543 L 300.6740116623057 359.8273213134563 L 300.63534019653264 359.10152531566956 L 300.51664355141907 358.2815842063477 L 300.3139011836685 357.3719144275862 L 300.0233717504395 356.37718695983517 L 299.64160750210385 355.3023102844193 L 299.16546762864226 354.152412510858 L 298.59213051167575 352.93282273303 L 297.91910483804537 351.64905168099006 L 297.1442395349328 350.30677173775786 L 296.26573249072936 348.91179639267096 L 295.2821380302029 347.47005920490903 L 294.1923731169778 345.9875923525436 L 292.99572226089407 344.47050484394936 L 291.6918411124474 342.9249604696191 L 290.2807587312111 341.35715557334817 L 288.76287851988894 339.773296722399 L 287.1389778204232 338.1795783566142 L 285.41020617336955 336.58216049651764 L 283.5780822465375 334.98714659023017 L 281.64448944365756 333.40056157852354 L 279.6116702085611 331.82833025655424 L 277.4822190450261 330.27625600975296 L 275.2590742770461 328.75000000000006 L 272.94550857878 327.2550608766059 L 270.5451183078497 325.7967550847295 L 268.06181167993475 324.3801978417286 L 265.49979582676235 323.01028484953844 L 262.8635627835856 321.69167480854026 L 260.15787445607646 320.42877279550487 L 257.3877466202161 319.2257145651029 L 254.55843201222214 318.086351831162 L 251.675402568813 317.014238580341 L 248.74433088115262 316.0126184671915 L 245.77107092863093 315.0844133357038 L 242.76163816121553 314.2322129083965 L 239.722189001443 313.4582656798271 L 236.6589998391937 312.76447104708586 L 233.57844559421588 312.152372705404 L 230.48697792290383 311.6231533324732 L 227.39110314712005 311.17763058046006 L 224.29735998383623 310.81625439001084 L 221.21229715508971 310.5391056358086 L 218.14245095817697 310.34589610847354 L 215.09432287615357 310.23596983281175 L 212.07435730855568 310.2083057176263 L 209.0889195018475 310.2615215275421 L 206.1442737583643 310.3938791625506 L 203.246562001541 310.6032912263052 L 200.4017827739326 310.88732885957336 L 197.61577074298896 311.24323081072595 L 194.89417678772833 311.66791371070684 L 192.24244873737723 312.1579835156167 L 189.66581283070934 312.7097480758558 L 187.169255962242 313.31923078674123 L 184.75750877862495 313.98218527163095 L 182.4350296855265 314.69411104489797 L 180.20598982205436 315.4502700985791 L 178.07425905628727 316.24570435321436 L 176.04339305184732 317.0752539103015 L 174.11662145160238 317.9335760409123 L 172.29683722059337 318.81516484237784 L 170.5865871861362 319.71437149256315 L 168.98806380875888 320.6254250291004 L 167.50309821323438 321.542453579072 L 166.13315450446123 322.4595059630219 L 164.87932538833968 323.3705735958225 L 163.74232911313317 324.2696126058704 L 162.72250774206714 325.1505660932868 L 161.8198267631652 326.00738644731086 L 161.03387603752861 326.8340576428484 L 160.36387208248254 327.62461743621867 L 159.80866168123137 328.37317938049284 L 159.36672680592508 329.0739545814705 L 159.0361908363298 329.72127311625206 L 158.81482605167258 330.3096050375879 L 158.70006236866033 330.8335808886455 L 158.68899729423092 331.2880116546062 L 158.778407057232 331.66790807949883 L 158.96475887901926 331.96849927896017 L 159.2442243388799 332.1852505821207 L 159.61269378628026 332.31388053858007 L 160.06579174818293 332.3503770294132 L 160.59889327612834 332.2910124243651 L 161.20714117440272 332.13235773078856 L 161.88546404747734 331.87129568350485 L 162.6285951019607 331.50503272853996 L 163.43109163561377 331.031109857655 L 164.28735514352223 330.4474122547002 L 165.19165196930965 329.75217771907137 L 166.13813442732942 328.9440038359237 L 167.12086232009122 328.0218538672841 L 168.13382477376229 326.9850613427768 L 169.17096231345243 325.8333333333334 L 170.2261890991315 324.5667523959668 L 171.29341524246146 323.18577718245 L 172.36656912453515 321.691241709519 L 173.43961963451045 320.08435329300096 L 174.50659824942556 318.3666891530679 L 175.56162087603835 316.54019170255174 L 176.5989093764015 314.60716253498407 L 177.61281270000808 312.5702551336657 L 178.59782754676584 310.432466327661 L 179.54861848672994 308.1971265250801 L 180.46003746447894 305.86788875840205 L 181.327142618224 303.4487165808362 L 182.14521634619436 300.9438708568304 L 182.9097825555429 298.357895493795 L 183.61662303194436 295.6956021658974 L 184.26179287120954 292.9620540843923 L 184.84163491760106 290.1625488723628 L 185.35279315709258 287.30260060494993 L 185.79222501756175 284.3879210791422 L 186.15721253181914 281.4244003799429 L 186.44537232345346 278.41808681226024 L 186.6546643796883 275.3751662701332 L 186.7833995797912 272.3019411169096 L 186.83024595203602 269.20480865176097 L 186.79423363677233 266.09023923938025 L 186.67475853779234 262.96475418092626 L 186.4715846488835 259.83490340519944 L 186.18484504720243 256.7072430596744 L 185.81504154988036 253.588313081379 L 185.3630430350597 250.4846148276739 L 184.83008243334564 247.40258884677823 L 184.2177524004203 244.34859286738242 L 183.5279996862903 241.32888008590484 L 182.76311822130924 238.3495778288854 L 181.92574094371275 235.41666666666683 L 181.01883039791244 232.5359600528889 L 180.04566813719987 229.7130845624586 L 179.0098429687934 226.95346079849102 L 177.9152380833103 224.26228503634658 L 176.76601711474163 221.64451167023054 L 175.56660918084123 219.1048365249621 L 174.32169295749162 216.64768109241652 L 173.03617984407344 214.2771777488345 L 171.71519628012015 211.99715600568575 L 170.36406527658352 209.81112984306966 L 168.9882872278484 207.72228617076235 L 167.59352007321627 205.73347445798515 L 166.18555887890514 203.84719756878627 L 164.7703149136961 202.0656038356064 L 163.35379429316816 200.39048039917776 L 161.94207626901587 198.82324783835907 L 160.5412912412119 197.36495610891046 L 159.1575985717796 196.01628180550819 L 157.79716427964684 194.77752675657877 L 156.46613869648854 193.64861795674912 L 155.1706341636011 192.62910883693547 L 153.91670284971678 191.71818186728783 L 152.71031476922738 190.91465248346015 L 151.55733607958092 190.21697432191627 L 150.46350773561213 189.62324574531604 L 149.4344245772994 189.13121763439415 L 148.47551492588622 188.73830241822466 L 147.59202076149347 188.44158431032264 L 146.78897855326915 188.23783071372296 L 146.07120081078915 188.1235047539912 L 145.4432584228431 188.09477889509054 L 144.9094638469257 188.14754958914656 L 144.47385520971093 188.277452907456 L 144.14018137552995 188.4798810965727 L 143.91188803640637 188.7499999999999 L 143.79210487355778 189.0827672829093 L 143.78363383643097 189.47295139444688 L 143.88893858134645 189.9151511995375 L 144.1101351076773 190.40381620971235 L 144.44898362520382 190.93326734033633 L 144.9068816818838 191.49771811972883 L 145.4848585767635 192.09129627406278 L 146.18357107816587 192.7080656105712 L 147.00330046260865 193.34204812054435 L 147.94395088519948 193.98724622278894 L 149.00504908747263 194.63766506774488 L 150.18574544385848 195.28733482222887 L 151.4848163431853 195.93033285484145 L 152.90066789683448 196.5608057424426 L 154.43134096042687 197.17299101873402 L 156.07451745121406 197.76123858692165 L 157.82752793871964 198.32003171962322 L 159.68736048161327 198.84400757068107 L 161.6506706793466 199.3279771252757 L 163.7137929027299 199.76694451676266 L 165.8727526634158 200.1561256409099 L 168.12328007817706 200.49096600074387 L 170.46082437995042 200.7671577179604 L 172.88056942387567 200.9806556498472 L 175.37745013299596 201.1276925538669 L 177.946169824927 201.2047932454626 L 180.58121835765144 201.20878769825333 L 183.27689102965851 201.13682303958052 L 186.02730816696464 200.98637439831202 L 188.8264353270771 200.75525456593635 L 191.66810404776828 200.44162243622048 L 194.54603306657594 200.04399019308306 L 197.45384993526233 199.56122922081857 L 200.38511295205163 198.99257471538493 L 203.33333333333334 198.337628980119 L 206.2919975456559 197.59636339396008 L 209.25458971827737 196.76911904500793 L 212.21461405623472 195.85660602703487 L 215.1656171739098 194.85990140135038 L 218.10121026934613 193.78044583120317 L 221.01509106014637 192.62003890065824 L 223.90106540263596 191.3808331345998 L 226.7530685171104 190.06532674116414 L 229.56518574339879 188.67635510248144 L 232.3316727526584 187.2170810440909 L 235.04697514326205 185.6909839177679 L 237.70574735084384 184.10184753675446 L 240.3028708050335 182.45374700649222 L 242.83347126809537 180.75103449791908 L 245.292935293633 178.9983240141733 L 247.6769257466522 177.20047520516255 L 249.98139632965763 175.36257628786015 L 252.20260506300104 173.48992613340016 L 254.33712667144997 171.58801558502796 L 256.38186383286677 169.66250807371625 L 258.33405724895124 167.71921960078072 L 260.191294502226 165.76409815909201 L 261.9515176677906 163.80320266649818 L 263.61302965281857 161.8426814868196 L 265.17449924134155 159.88875061525874 L 266.6349648264849 157.94767160627129 L 267.99383681703205 156.02572932287188 L 269.2508987099272 154.12920958698794 L 270.40630682511556 152.26437681083615 L 271.46058870390357 150.43745168936402 L 272.41464017679783 148.65458903358638 L 273.26972111156175 146.92185582414484 L 274.02744985694 145.2452095636336 L 274.6897964021764 143.6304770051685 L 275.2590742770457 142.08333333333331 L 275.73793122162897 140.6092818720215 L 276.1293386594705 139.2136343918089 L 276.4365800120303 137.90149208734977 L 276.6632378965023 136.67772729289453 L 276.8131802530517 135.54696600138666 L 276.89054545138396 134.51357124972685 L 276.89972643017813 133.58162742969188 L 276.8453539264012 132.75492558068575 L 276.73227885477576 132.03694971699326 L 276.56555390070525 131.43086423850085 L 276.3504143927898 130.93950246997974 L 276.09225852362783 130.5653563699856 L 275.7966269899464 130.31056744624823 L 275.4691821251752 130.17691891010878 L 275.1156865993942 130.1658290981302 L 274.7419817631298 130.27834618447122 L 274.3539657127616 130.51514420300228 L 273.95757115628186 130.87652039345141 L 273.5587431588765 131.36239388113583 L 273.1634168482128 131.97230569506064 L 272.7774951594773 132.705420124383 L 272.4068267000548 133.5605274084489 L 272.05718381330905 134.53604775084005 L 271.734240920215 135.63003664313294 L 271.4435532166018 136.84019147938716 L 271.1905358024793 138.16385943776075 L 270.9804433183881 139.59804660112187 L 270.8183501618778 141.139428284088 L 270.70913135516287 142.7843605296152 L 270.6574441326536 144.52889273407095 L 270.66771031449355 146.36878135569168 L 270.7440995294097 148.29950465744747 L 270.8905133471529 150.31627843164023 L 271.1105703775362 152.41407265004815 L 271.4075923896205 154.58762898011898 L 271.7845915009501 156.83147910461997 L 272.24425848289656 159.13996377927555 L 272.78895222418714 161.50725256029037 L 273.4206903905285 163.92736413125323 L 274.14114131396815 166.3941871567812 L 274.9516171412268 168.9015015883781 L 275.8530682657226 171.44300034636478 L 276.8460790634167 174.0123113003972 L 277.9308649479341 176.60301947001977 L 279.107270755697 179.20868936592095 L 280.3747704670388 181.8228873920524 L 281.73246826447814 184.43920422855885 L 283.1791009245623 187.05127711554456 L 284.71304153488484 189.65281195804582 L 286.33230452316326 192.23760517323603 L 288.0345519805448 194.79956520180588 L 289.8171012566845 197.33273360667036 L 291.6769337995781 199.8313056836338 L 293.6107052086773 202.28965051039143 L 295.61475646546626 204.70233036226054 L 297.6851263014662 207.0641194253066 L 299.81756465955385 209.3700217400409 L 302.00754720056983 211.61528831163054 L 304.25029080344154 213.79543332553982 L 306.5407700034937 215.9062494107346 L 308.87373431025276 217.9438218959869 L 311.2437263429025 219.90454200842754 L 313.6451007186176 221.78511896727844 L 316.0720436263075 223.5825909296624 L 318.51859301584113 225.29433474949042 L 320.97865933061917 226.91807451467847 L 323.44604670941675 228.45188883232964 L 325.91447458172786 229.89421683598985 L 328.37759957944394 231.2438628936742 Z"

    />
    <path stroke="green" stroke-width="1" fill-opacity="0"
d = " M 296.6666666666667 198.337628980119 L 299.61488704794806 198.99257471538473 L 302.54615006473756 199.56122922081855 L 305.45396693342394 200.043990193083 L 308.33189595223155 200.44162243622037 L 311.1735646729228 200.75525456593624 L 313.97269183303536 200.98637439831205 L 316.7231089703416 201.13682303958072 L 319.4187816423487 201.20878769825353 L 322.05383017507285 201.20479324546255 L 324.62254986700407 201.12769255386706 L 327.1194305761244 200.9806556498473 L 329.5391756200496 200.7671577179604 L 331.8767199218229 200.49096600074387 L 334.1272473365841 200.15612564090986 L 336.28620709727 199.76694451676258 L 338.3493293206533 199.3279771252756 L 340.3126395183866 198.84400757068084 L 342.17247206128036 198.32003171962324 L 343.9254825487859 197.76123858692162 L 345.56865903957305 197.17299101873405 L 347.0993321031654 196.5608057424425 L 348.51518365681477 195.93033285484165 L 349.8142545561416 195.28733482222898 L 350.9949509125274 194.63766506774493 L 352.0560491148005 193.98724622278888 L 352.99669953739146 193.34204812054458 L 353.81642892183424 192.70806561057137 L 354.5151414232364 192.09129627406264 L 355.09311831811624 191.49771811972894 L 355.551016374796 190.9332673403361 L 355.8898648923225 190.40381620971203 L 356.1110614186533 189.9151511995371 L 356.216366163569 189.47295139444677 L 356.2078951264423 189.08276728290943 L 356.08811196359375 188.75 L 355.8598186244701 188.47988109657274 L 355.52614479028904 188.277452907456 L 355.0905361530745 188.14754958914685 L 354.556741577157 188.09477889509077 L 353.92879918921096 188.12350475399137 L 353.2110214467309 188.2378307137231 L 352.4079792385065 188.44158431032272 L 351.5244850741136 188.73830241822432 L 350.56557542270036 189.13121763439372 L 349.53649226438785 189.62324574531596 L 348.4426639204192 190.2169743219164 L 347.2896852307727 190.91465248346023 L 346.08329715028333 191.71818186728805 L 344.82936583639895 192.62910883693556 L 343.53386130351157 193.6486179567494 L 342.20283572035316 194.77752675657865 L 340.8424014282204 196.01628180550813 L 339.45870875878813 197.36495610891038 L 338.05792373098416 198.82324783835912 L 336.6462057068318 200.39048039917782 L 335.2296850863039 202.0656038356065 L 333.8144411210948 203.84719756878596 L 332.40647992678373 205.73347445798498 L 331.0117127721516 207.72228617076226 L 329.6359347234166 209.81112984306986 L 328.2848037198799 211.99715600568584 L 326.9638201559266 214.27717774883442 L 325.67830704250844 216.6476810924164 L 324.4333908191588 219.10483652496202 L 323.23398288525834 221.64451167023046 L 322.08476191668973 224.2622850363466 L 320.99015703120665 226.9534607984911 L 319.95433186280013 229.71308456245865 L 318.98116960208756 232.5359600528891 L 318.07425905628725 235.41666666666666 L 317.23688177869076 238.3495778288853 L 316.4720003137097 241.32888008590444 L 315.7822475995797 244.34859286738217 L 315.16991756665436 247.4025888467781 L 314.63695696494034 250.4846148276737 L 314.1849584501196 253.588313081379 L 313.81515495279757 256.70724305967445 L 313.5284153511165 259.8349034051994 L 313.3252414622076 262.9647541809263 L 313.20576636322755 266.0902392393804 L 313.1697540479639 269.20480865176114 L 313.21660042020875 272.3019411169097 L 313.3453356203117 275.37516627013315 L 313.5546276765466 278.41808681226007 L 313.8427874681809 281.4244003799426 L 314.2077749824383 284.3879210791421 L 314.6472068429074 287.30260060494993 L 315.1583650823989 290.1625488723627 L 315.73820712879046 292.9620540843924 L 316.38337696805564 295.6956021658974 L 317.09021744445704 298.3578954937951 L 317.8547836538056 300.9438708568305 L 318.672857381776 303.4487165808361 L 319.53996253552117 305.8678887584018 L 320.4513815132701 308.1971265250799 L 321.40217245323413 310.4324663276611 L 322.387187299992 312.5702551336657 L 323.40109062359863 314.60716253498384 L 324.43837912396157 316.5401917025517 L 325.49340175057444 318.3666891530678 L 326.56038036548944 320.08435329300096 L 327.6334308754648 321.6912417095191 L 328.7065847575384 323.1857771824502 L 329.7738109008686 324.5667523959665 L 330.8290376865476 325.83333333333326 L 331.8661752262376 326.98506134277693 L 332.8791376799088 328.02185386728405 L 333.8618655726705 328.9440038359237 L 334.80834803069024 329.7521777190715 L 335.7126448564776 330.44741225470045 L 336.5689083643861 331.0311098576551 L 337.3714048980392 331.5050327285401 L 338.11453595252266 331.8712956835048 L 338.79285882559736 332.1323577307884 L 339.40110672387186 332.2910124243648 L 339.934208251817 332.35037702941327 L 340.38730621371974 332.31388053858 L 340.75577566112 332.1852505821208 L 341.03524112098074 331.96849927896017 L 341.22159294276804 331.66790807949883 L 341.31100270576917 331.2880116546061 L 341.2999376313396 330.83358088864554 L 341.1851739483273 330.309605037588 L 340.96380916367 329.7212731162523 L 340.6332731940751 329.0739545814703 L 340.19133831876877 328.37317938049273 L 339.63612791751757 327.6246174362186 L 338.96612396247133 326.8340576428485 L 338.1801732368349 326.0073864473108 L 337.27749225793286 325.1505660932868 L 336.2576708868669 324.26961260587035 L 335.1206746116603 323.3705735958226 L 333.86684549553877 322.4595059630219 L 332.49690178676553 321.5424535790721 L 331.01193619124126 320.62542502910037 L 329.41341281386394 319.7143714925631 L 327.7031627794066 318.81516484237784 L 325.8833785483977 317.9335760409123 L 323.95660694815274 317.07525391030157 L 321.92574094371275 316.24570435321436 L 319.79401017794567 315.45027009857915 L 317.5649703144735 314.694111044898 L 315.2424912213751 313.98218527163095 L 312.8307440377579 313.3192307867413 L 310.33418716929054 312.7097480758559 L 307.75755126262294 312.1579835156166 L 305.10582321227184 311.6679137107068 L 302.3842292570111 311.24323081072595 L 299.59821722606745 310.88732885957336 L 296.75343799845905 310.6032912263052 L 293.85572624163575 310.3938791625506 L 290.91108049815256 310.2615215275421 L 287.92564269144435 310.2083057176263 L 284.9056771238463 310.23596983281175 L 281.8575490418229 310.34589610847354 L 278.7877028449105 310.5391056358085 L 275.70264001616397 310.8162543900108 L 272.60889685288 311.17763058046006 L 269.5130220770962 311.62315333247324 L 266.42155440578415 312.15237270540405 L 263.34100016080635 312.76447104708586 L 260.277810998557 313.4582656798271 L 257.2383618387845 314.2322129083965 L 254.2289290713691 315.0844133357038 L 251.25566911884758 316.01261846719143 L 248.3245974311872 317.014238580341 L 245.44156798777774 318.08635183116206 L 242.6122533797838 319.22571456510286 L 239.8421255439236 320.42877279550487 L 237.13643721641444 321.69167480854026 L 234.5002041732377 323.0102848495384 L 231.9381883200653 324.38019784172855 L 229.45488169215034 325.7967550847295 L 227.05449142122004 327.25506087660585 L 224.74092572295407 328.75 L 222.51778095497406 330.2762560097529 L 220.38832979143876 331.8283302565542 L 218.3555105563423 333.4005615785235 L 216.42191775346254 334.98714659023017 L 214.58979382663045 336.58216049651764 L 212.86102217957688 338.1795783566142 L 211.23712148011117 339.773296722399 L 209.71924126878895 341.3571555733481 L 208.3081588875527 342.9249604696191 L 207.00427773910593 344.47050484394936 L 205.80762688302246 345.98759235254363 L 204.71786196979724 347.47005920490903 L 203.73426750927058 348.91179639267096 L 202.85576046506708 350.3067717377578 L 202.08089516195474 351.64905168099006 L 201.40786948832414 352.9328227330299 L 200.83453237135777 354.15241251085797 L 200.3583924978961 355.30231028441926 L 199.97662824956063 356.37718695983517 L 199.68609881633148 357.3719144275862 L 199.4833564485811 358.28158420634776 L 199.36465980346742 359.10152531566956 L 199.32598833769418 359.8273213134562 L 199.36305769488683 360.4548264371854 L 199.47133603228076 360.9801807910089 L 199.64606122805435 361.39982452429405 L 199.88225890749038 361.7105109507682 L 200.1747612232144 361.9093185612186 L 200.5182263220681 361.9936618866597 L 200.90715842870983 361.9613011729882 L 201.33592847383886 361.81035083240005 L 201.79879519298095 361.5392866412185 L 202.28992662009665 361.14695165826595 L 202.80342189886215 360.632560842491 L 203.33333333333337 359.9957043532143 L 203.87368859884546 359.23634952106636 L 204.41851303344313 358.35484148245513 L 204.96185192982978 357.3519024751703 L 205.49779274783893 356.2286297975301 L 206.02048716771324 354.98649243825525 L 206.5241729050428 353.6273263890059 L 207.00319520908016 352.1533286562377 L 207.45202796727173 350.5670499936789 L 207.86529434027156 348.8713863813129 L 208.23778685337385 347.06956928123265 L 208.5644868722511 345.165154705106 L 208.84058339310033 343.16201113225026 L 209.06149107974335 341.06430632141803 L 209.2228674829306 338.8764930633569 L 209.32062938003162 336.6032939249968 L 209.35096817643836 334.24968503972195 L 209.3103643133748 331.82087900159854 L 209.19560063036255 329.322306924635 L 209.0037746343395 326.7595997311364 L 208.7323096313388 324.1385687359723 L 208.37896468071858 321.4651855960961 L 207.94184333614072 318.74556169692136 L 207.4194011418519 315.9859270491784 L 206.81045185726882 313.1926087716184 L 206.11417238743502 310.37200923641933 L 205.33010640154117 307.53058395534595 L 204.4581666264092 304.6748192856488 L 203.49863580657944 301.81121003532417 L 202.4521663274224 298.94623704772135 L 201.31977850247682 296.08634484554534 L 200.1028575310125 293.2379194141043 L 198.8031491365659 290.40726620313103 L 197.4227539019323 287.600588425741 L 195.96412032076063 284.82396573201197 L 194.43003659049856 282.0833333333334 L 192.82362117593922 279.3844616520547 L 191.14831217703136 276.73293656908254 L 189.4078555388911 274.1341403399317 L 187.6062921461076 271.5932332473424 L 185.74794384742614 269.1151360559358 L 183.83739846072947 266.7045133315086 L 181.87949381188776 264.36575768447216 L 179.8793008645094 262.10297499362315 L 177.8421060008876 259.9199706629402 L 175.77339251746966 257.8202369603761 L 173.67882140100158 255.8069414837671 L 171.5642114540708 253.88291679492198 L 169.43551884110607 252.05065125878747 L 167.29881612797035 250.31228112025929 L 165.16027089009867 248.66958384678512 L 163.02612396568048 247.12397276036572 L 160.90266743166114 245.6764929779542 L 158.79622238133035 244.32781867455193 L 156.71311658298225 243.0782516785854 L 154.6596620995581 241.92772140435648 L 152.64213294932682 240.87578612158805 L 150.66674288751588 239.921635557289 L 148.73962338837285 239.064094820397 L 146.86680190642764 238.30162963492106 L 145.05418049472593 237.63235286262247 L 143.30751485653207 237.0540322916486 L 141.63239390545027 236.5640996630133 L 140.03421990709737 236.15966090237828 L 138.51818927338084 235.83750752026947 L 137.08927407810472 235.5941291396965 L 135.75220436004582 235.42572710608638 L 134.51145127682793 235.32822913058723 L 133.37121116987953 235.29730491408003 L 132.3353905975032 235.32838269573853 L 131.40759238962056 235.4166666666665 L 130.5911027741064 235.55715518603583 L 129.88887962078906 235.7446597342831 L 129.30354184520095 235.97382453528613 L 128.83736001001046 236.2391467770384 L 128.4922481577867 236.5349973582078 L 128.2697569043417 236.85564208607116 L 128.1710678173865 237.19526324971258 L 128.19698910064017 237.54798149102055 L 128.3479525988598 237.90787789496397 L 128.6240121345369 238.26901621982807 L 129.02484318223986 238.62546518760232 L 129.54974388179784 238.97132075449767 L 130.19763738673282 239.30072828162957 L 130.9670755395695 239.60790452627847 L 131.85624386090723 239.88715937476348 L 132.86296783443635 240.13291723891587 L 133.98472046544964 240.3397380393082 L 135.2186310858396 240.50233769991692 L 136.56149537411775 240.61560808060534 L 138.00978655464263 240.67463627586204 L 139.5596677360283 240.67472321047157 L 141.20700534462816 240.61140146533154 L 142.9473836050741 240.48045226937438 L 144.7761200161035 240.2779215965511 L 146.68828176635196 240.00013531001937 L 148.67870303142132 239.64371329911447 L 150.74200309038778 239.20558255826657 L 152.8726051969797 238.6829891608344 L 155.06475613796013 238.0735090847661 L 157.31254640878947 237.37505785112384 L 159.60993093443983 236.5858989407497 L 161.9507502612813 235.7046509587344 L 164.3287521442806 234.7302935208237 L 166.73761345233777 233.6621718404846 L 169.1709623134524 232.4999999999999 L 171.622400420556 231.2438628936742 L 174.08552541827203 229.8942168359899 L 176.55395329058317 228.45188883232973 L 179.02134066938035 226.91807451467906 L 181.48140698415844 225.29433474949101 L 183.92795637369207 223.58259092966298 L 186.35489928138233 221.7851189672785 L 188.75627365709744 219.90454200842763 L 191.12626568974719 217.94382189598696 L 193.45922999650617 215.9062494107347 L 195.7497091965584 213.79543332553988 L 197.99245279943008 211.6152883116306 L 200.1824353404461 209.37002174004095 L 202.31487369853375 207.06411942530667 L 204.38524353453369 204.70233036226062 L 206.38929479132264 202.28965051039148 L 208.32306620042183 199.8313056836339 L 210.18289874331543 197.33273360667044 L 211.96544801945515 194.79956520180593 L 213.6676954768367 192.23760517323615 L 215.2869584651151 189.6528119580459 L 216.82089907543764 187.05127711554465 L 218.26753173552183 184.43920422855894 L 219.62522953296119 181.82288739205248 L 220.89272924430298 179.208689365921 L 222.06913505206586 176.60301947001986 L 223.15392093658323 174.01231130039724 L 224.14693173427736 171.4430003463649 L 225.04838285877318 168.9015015883782 L 225.85885868603185 166.39418715678127 L 226.57930960947147 163.9273641312533 L 227.21104777581283 161.50725256029045 L 227.75574151710347 159.1399637792756 L 228.2154084990499 156.83147910462003 L 228.59240761037944 154.58762898011904 L 228.8894296224638 152.4140726500482 L 229.10948665284712 150.31627843164028 L 229.2559004705903 148.29950465744753 L 229.33228968550645 146.36878135569174 L 229.3425558673464 144.528892734071 L 229.29086864483713 142.78436052961524 L 229.18164983812224 141.13942828408807 L 229.0195566816119 139.5980466011219 L 228.8094641975207 138.16385943776078 L 228.5564467833982 136.84019147938722 L 228.26575907978503 135.63003664313297 L 227.94281618669098 134.53604775084005 L 227.5931732999452 133.56052740844896 L 227.22250484052265 132.70542012438307 L 226.83658315178724 131.97230569506067 L 226.44125684112348 131.3623938811358 L 226.04242884371814 130.87652039345144 L 225.64603428723845 130.51514420300228 L 225.2580182368702 130.27834618447125 L 224.88431340060578 130.1658290981302 L 224.53081787482478 130.17691891010872 L 224.2033730100536 130.31056744624817 L 223.9077414763722 130.5653563699856 L 223.6495856072102 130.93950246997974 L 223.43444609929475 131.43086423850082 L 223.26772114522424 132.03694971699323 L 223.15464607359883 132.75492558068572 L 223.10027356982184 133.58162742969185 L 223.10945454861604 134.51357124972685 L 223.1868197469483 135.54696600138664 L 223.33676210349768 136.67772729289447 L 223.5634199879697 137.90149208734977 L 223.8706613405295 139.21363439180888 L 224.26206877837103 140.60928187202148 L 224.74092572295422 142.0833333333333 L 225.31020359782354 143.63047700516847 L 225.97255014306 145.24520956363358 L 226.73027888843822 146.92185582414479 L 227.58535982320214 148.6545890335863 L 228.53941129609638 150.43745168936397 L 229.59369317488444 152.2643768108361 L 230.74910129007273 154.12920958698788 L 232.0061631829679 156.0257293228718 L 233.36503517351503 157.94767160627123 L 234.82550075865845 159.8887506152587 L 236.38697034718138 161.84268148681957 L 238.0484823322094 163.80320266649812 L 239.8087054977739 165.76409815909196 L 241.66594275104868 167.7192196007807 L 243.61813616713323 169.6625080737162 L 245.66287332854995 171.5880155850279 L 247.7973949369989 173.4899261334001 L 250.0186036703423 175.36257628786007 L 252.32307425334773 177.2004752051625 L 254.70706470636696 178.99832401417325 L 257.1665287319045 180.75103449791902 L 259.6971291949664 182.45374700649216 L 262.2942526491561 184.1018475367544 L 264.9530248567379 185.69098391776785 L 267.6683272473415 187.21708104409083 L 270.43481425660116 188.6763551024814 L 273.2469314828895 190.06532674116409 L 276.09893459736395 191.3808331345998 L 278.98490893985354 192.6200389006582 L 281.8987897306538 193.78044583120317 L 284.8343828260901 194.85990140135038 L 287.7853859437652 195.85660602703481 L 290.7454102817225 196.76911904500793 L 293.708002454344 197.59636339396008 Z"

    />
    <path stroke="red" stroke-width="1" fill-opacity="0"
d = " M 250 185.83333333333331 L 253.14049914482143 185.79157261593338 L 256.27444172490095 185.6664750051766 L 259.39529359767494 185.45859345693728 L 262.4965653849052 185.16884733855332 L 265.57183465505096 184.79851909851894 L 268.61476786669294 184.34924962077 L 271.6191419946918 183.82303228020362 L 274.5788657618996 183.22220572072797 L 277.48800040065345 182.54944538171384 L 280.3407798699652 181.8077538032045 L 283.1316304562672 181.00044974461457 L 285.85518968778103 180.13115615589987 L 288.50632449503473 179.2037870442914 L 291.0801485527482 178.2225332836448 L 293.5720387412402 177.19184741724283 L 295.97765066865895 176.11642750849782 L 298.2929331987015 175.00120009741082 L 300.51414193204454 173.85130232384947 L 302.6378515934563 172.67206328169266 L 304.6609672804737 171.4689846706467 L 306.58073453360373 170.24772081505495 L 308.3947481922274 169.01405812129283 L 310.1009600047275 167.77389404735266 L 311.6976849658234 166.5332156599728 L 313.1836063586479 165.29807785614497 L 314.55777948373964 164.07458132703883 L 315.8196340618212 162.86885034330794 L 316.96897530198265 161.68701044138402 L 318.00598363166216 160.53516609072443 L 318.9312130896086 159.41937842204837 L 319.7455883877933 158.3456430963835 L 320.45040065300196 157.3198683942424 L 321.0473018635638 156.347853603465 L 321.53829800134235 155.43526778319526 L 321.9257409437128 154.5876289801191 L 322.2123191247559 153.81028397147287 L 322.40104699930725 153.10838860745082 L 322.4952533477798 152.48688882349555 L 322.49856846382846 151.95050239056155 L 322.4149102709232 151.5037014688039 L 322.24846941772637 151.15069602726894 L 322.00369340582796 150.89541818906895 L 321.68526980685016 150.74150755821125 L 321.29810862919464 150.69229758074192 L 320.8473238977439 150.75080298916333 L 320.33821451264714 150.9197083752125 L 319.7762444558964 151.20135793204616 L 319.16702241673454 151.5977464027006 L 318.5162809090114 152.1105112673739 L 317.82985495542425 152.74092619765 L 317.1136604151242 153.48989580124896 L 316.3736720324467 154.3579516762723 L 315.615901285518 155.34524978922528 L 314.84637411420647 156.45156918636488 L 314.07110860731206 157.67631204314796 L 313.29609272903883 159.01850505177057 L 312.52726216464237 160.47680214199778 L 311.77047836472315 162.0494885257164 L 311.0315068669189 163.73448605090505 L 310.315995972754 165.529359846031 L 309.62945585613113 167.4313262312664 L 308.9772381784011 169.43726186838532 L 308.3645162831313 171.54371411676655 L 307.7962660416167 173.7469125586196 L 307.27724741784107 176.0427816523587 L 306.8119868190227 178.4269544690202 L 306.40476029506095 180.89478746274222 L 306.05957764715816 183.44137622262204 L 305.78016750263623 186.0615721497624 L 305.56996340950155 188.75000000000003 L 305.43209100066395 191.50107622971973 L 305.3693562738783 194.3090280792807 L 305.38423502948206 197.1679133259418 L 305.47886350385716 200.0716406357825 L 305.65503023225597 203.01399044196873 L 305.9141691702314 205.9886362748324 L 306.2573540984015 208.98916646761876 L 306.6852943306804 212.00910616041043 L 307.1983317414401 215.04193952367189 L 307.7964391223413 218.08113212207383 L 308.4792198748107 221.12015333875627 L 309.2459090393543 224.15249877997277 L 310.0953756581109 227.17171258013195 L 311.0261264622724 230.17140952760752 L 312.0363108712505 233.1452969323354 L 313.1237272857736 236.08719615713534 L 314.2858306524582 238.99106373590618 L 315.51974127284814 241.85101200331894 L 316.82225482545505 244.66132916238564 L 318.18985356498604 247.41649871829037 L 319.6187186587312 250.11121820914235 L 321.10474361600643 252.74041716682927 L 322.64354876263053 255.29927424389922 L 324.2304967086743 257.78323344539706 L 325.86070875415635 260.1880194077735 L 327.5290821740017 262.5096516704065 L 329.2303083204281 264.7444578888766 L 330.9588914779947 266.8890859429282 L 332.70916840384984 268.94051489600514 L 334.4753284832588 270.8960647673629 L 336.25143442828664 272.7534050820054 L 338.03144344556245 274.51056216807854 L 339.8092287973699 276.16592517582643 L 341.5786016788954 277.718250796801 L 343.3333333333333 279.16666666666663 L 345.06717732568904 280.51067343965013 L 346.7738918955508 281.7501455274474 L 348.4472623088162 282.88533050017486 L 350.08112312835726 283.9168471517452 L 351.66938032389487 284.8456822368287 L 353.2060331419282 285.67318589131276 L 354.68519565741633 286.40106575289013 L 356.1011179300482 287.03137980305576 L 357.44820668934614 287.566527956369 L 358.7210454745343 288.009242427326 L 359.9144141570497 288.36257690955614 L 361.0233077757804 288.6298946063114 L 362.0429546175725 288.81485515533245 L 362.9688334782458 288.9214004951243 L 363.79669004228776 288.9537397234691 L 364.52255232254686 288.9163330026119 L 365.1427451046096 288.8138745689604 L 365.65390334410114 288.65127490835215 L 366.05298446889896 288.4336421609227 L 366.3372795421624 288.1662628223709 L 366.5044232461563 287.85458181093105 L 366.5524026510664 287.50418197163106 L 366.4795647373477 287.1207630914343 L 366.28462264460694 286.7101205006068 L 365.9666606245768 286.2781233371343 L 365.52513768037267 285.8306925522185 L 364.9598898789237 285.37377873580954 L 364.2711313282174 284.9133398417681 L 363.4594538157701 284.45531889261804 L 362.52582510952897 284.0056217439129 L 361.4715859271924 283.5700949880339 L 360.2984455847013 283.1545040767266 L 359.0084763393795 282.7645117409071 L 357.60410644786697 282.4056567852016 L 356.0881119635937 282.0833333333335 L 354.4636073030455 281.8027705988649 L 352.7340346144786 281.5690132539162 L 350.9031519870265 281.38690246633615 L 348.9750205422872 281.2610576734127 L 346.953990454478 281.1958591575682 L 344.8446859490771 281.19543148661216 L 342.65198933352553 281.2636278780282 L 340.38102411702425 281.4040155434624 L 338.03713727971933 281.61986206606747 L 335.62588075461156 281.91412285966123 L 333.1529921883397 282.2894297547785 L 330.6243750495666 282.7480807526658 L 328.04607815603174 283.2920309840775 L 325.42427469340817 283.92288490542416 L 322.76524080092224 284.6418897603862 L 320.07533380024006 285.4499303305796 L 317.36097014539973 286.34752499423695 L 314.628603172565 287.3348231071901 L 311.8847007290906 288.41160371569543 L 309.13572276181407 289.57727560588427 L 306.38809894464214 290.8308786898208 L 303.64820642534517 292.17108672337463 L 300.92234777105296 293.59621134633585 L 298.21672919122636 295.10420743047104 L 295.5374391158864 296.6926797165289 L 292.89042720560644 298.3588907165924 L 290.281483868227 300.09976985363653 L 287.71622035543373 301.9119238057258 L 285.2000495102661 303.79164801796276 L 282.7381672342863 305.73493934112287 L 280.335534740564 307.73750975187136 L 277.99686165581437 309.7948011055828 L 275.72659003198703 311.9020008690875 L 273.52887932434646 314.05405877715464 L 271.4075923896205 316.2457043532143 L 269.3662825541394 318.4714652317262 L 267.4081817980626 320.7256862167228 L 265.5361900977828 323.00254900842583 L 263.75286596445807 325.2960925274331 L 262.0604182123356 327.6002337638333 L 260.46069898612353 329.90878907672584 L 258.9551980721669 332.2154958680028 L 257.54503851357805 334.514034552912 L 256.230973544807 336.79805074885155 L 255.01338485641236 339.06117760306313 L 253.89228219602725 341.29705817939043 L 252.86730430673393 343.4993678240546 L 251.93772119927192 345.66183643047015 L 251.10243774971983 347.7782705234836 L 250.3599986095619 349.8425750840596 L 249.70859441033093 351.8487750363653 L 249.14606924040152 353.79103632040875 L 248.66992936694 355.66368647486854 L 248.27735317156743 357.46123465649976 L 247.96520226393835 359.1783910245166 L 247.7300337332335 360.8100854206219 L 247.56811349346845 362.3514852778703 L 247.47543067463116 363.7980126943107 L 247.44771300789176 365.1453606103386 L 247.4804431495872 366.38950803189516 L 247.56887588530893 367.5267342450617 L 247.7080561522795 368.55363197120425 L 247.89283781527018 369.46711941561466 L 248.1179031286148 370.26445116654793 L 248.37778281441464 370.9432279056726 L 248.6668766848344 371.50140489519725 L 248.97947473442116 371.93729921131603 L 249.30977862672003 372.2495956980972 L 249.65192349802766 372.4373516205178 L 250 372.5 L 250.34807650197234 372.4373516205178 L 250.69022137327997 372.2495956980972 L 251.02052526557884 371.93729921131603 L 251.33312331516555 371.50140489519725 L 251.6222171855853 370.9432279056726 L 251.88209687138516 370.264451166548 L 252.10716218472996 369.46711941561466 L 252.29194384772055 368.55363197120425 L 252.4311241146909 367.5267342450617 L 252.51955685041264 366.38950803189516 L 252.55228699210824 365.1453606103386 L 252.52456932536884 363.7980126943107 L 252.43188650653153 362.3514852778703 L 252.2699662667665 360.81008542062193 L 252.03479773606168 359.17839102451666 L 251.72264682843254 357.46123465649976 L 251.33007063305982 355.6636864748686 L 250.8539307595983 353.7910363204088 L 250.29140558966904 351.84877503636534 L 249.64000139043844 349.8425750840597 L 248.89756225028054 347.7782705234837 L 248.0622788007281 345.66183643047015 L 247.13269569326593 343.4993678240546 L 246.10771780397275 341.29705817939043 L 244.9866151435876 339.06117760306313 L 243.76902645519303 336.7980507488516 L 242.45496148642195 334.514034552912 L 241.04480192783308 332.21549586800285 L 239.53930101387647 329.9087890767259 L 237.93958178766442 327.60023376383333 L 236.24713403554182 325.2960925274331 L 234.46380990221738 323.00254900842594 L 232.5918182019377 320.7256862167229 L 230.63371744586075 318.4714652317263 L 228.5924076103795 316.2457043532143 L 226.4711206756534 314.0540587771545 L 224.27340996801288 311.90200086908743 L 222.00313834418554 309.79480110558274 L 219.66446525943587 307.73750975187136 L 217.2618327657137 305.7349393411229 L 214.79995048973393 303.79164801796276 L 212.28377964456632 301.91192380572585 L 209.71851613177296 300.0997698536365 L 207.1095727943935 298.3588907165923 L 204.4625608841137 296.69267971652897 L 201.78327080877395 295.10420743047126 L 199.0776522289474 293.5962113463362 L 196.35179357465495 292.17108672337474 L 193.61190105535798 290.8308786898209 L 190.86427723818585 289.57727560588415 L 188.11529927090933 288.4116037156953 L 185.3713968274349 287.33482310719 L 182.63902985460032 286.347524994237 L 179.92466619976 285.4499303305796 L 177.2347591990778 284.6418897603862 L 174.57572530659198 283.9228849054242 L 171.95392184396837 283.2920309840775 L 169.3756249504333 282.74808075266554 L 166.8470078116602 282.2894297547782 L 164.37411924538847 281.9141228596613 L 161.9628627202809 281.6198620660679 L 159.61897588297597 281.40401554346266 L 157.34801066647435 281.26362787802805 L 155.15531405092278 281.1954314866119 L 153.04600954552205 281.19585915756824 L 151.02497945771285 281.2610576734127 L 149.09684801297362 281.38690246633615 L 147.26596538552158 281.5690132539165 L 145.53639269695444 281.8027705988648 L 143.9118880364062 282.08333333333314 L 142.39589355213297 282.40565678520136 L 140.9915236606205 282.7645117409071 L 139.70155441529874 283.15450407672677 L 138.52841407280775 283.5700949880342 L 137.47417489047112 284.0056217439131 L 136.54054618422998 284.455318892618 L 135.72886867178264 284.9133398417682 L 135.04011012107628 285.37377873580954 L 134.4748623196272 285.8306925522181 L 134.03333937542317 286.27812333713416 L 133.71537735539306 286.71012050060676 L 133.52043526265226 287.1207630914342 L 133.44759734893347 287.50418197163077 L 133.4955767538437 287.85458181093105 L 133.66272045783757 288.1662628223708 L 133.94701553110104 288.43364216092283 L 134.34609665589886 288.65127490835226 L 134.85725489539053 288.813874568961 L 135.47744767745326 288.9163330026123 L 136.20330995771226 288.9537397234691 L 137.0311665217541 288.92140049512415 L 137.95704538242748 288.81485515533245 L 138.97669222421956 288.6298946063112 L 140.08558584295025 288.36257690955586 L 141.2789545254656 288.0092424273258 L 142.5517933106538 287.56652795636893 L 143.8988820699517 287.03137980305553 L 145.31480434258356 286.40106575289 L 146.79396685807185 285.673185891313 L 148.3306196761052 284.8456822368288 L 149.91887687164274 283.91684715174523 L 151.55273769118372 282.88533050017475 L 153.22610810444917 281.7501455274474 L 154.932822674311 280.5106734396504 L 156.66666666666663 279.1666666666668 L 158.4213983211046 277.71825079680076 L 160.19077120263015 276.16592517582643 L 161.9685565544375 274.51056216807865 L 163.74856557171333 272.7534050820054 L 165.52467151674114 270.89606476736276 L 167.29083159615016 268.940514896005 L 169.04110852200535 266.8890859429283 L 170.76969167957196 264.74445788887675 L 172.4709178259983 262.5096516704066 L 174.1392912458436 260.1880194077738 L 175.76950329132563 257.78323344539734 L 177.35645123736944 255.29927424389942 L 178.89525638399354 252.74041716682942 L 180.38128134126876 250.11121820914255 L 181.81014643501396 247.4164987182904 L 183.17774517454498 244.66132916238539 L 184.4802587271519 241.85101200331857 L 185.71416934754188 238.99106373590598 L 186.87627271422642 236.08719615713525 L 187.96368912874945 233.1452969323355 L 188.97387353772757 230.17140952760758 L 189.904624341889 227.17171258013212 L 190.75409096064564 224.15249877997303 L 191.5207801251892 221.1201533387565 L 192.20356087765862 218.081132122074 L 192.80166825855977 215.04193952367223 L 193.31470566931958 212.00910616041048 L 193.74264590159854 208.98916646761876 L 194.08583082976853 205.98863627483257 L 194.34496976774395 203.01399044196893 L 194.52113649614273 200.07164063578273 L 194.61576497051823 197.16791332594136 L 194.6306437261219 194.30902807928044 L 194.567908999336 191.50107622971973 L 194.43003659049853 188.74999999999994 L 194.21983249736388 186.06157214976236 L 193.94042235284195 183.44137622262195 L 193.59523970493905 180.89478746274222 L 193.18801318097732 178.42695446902027 L 192.722752582159 176.0427816523587 L 192.2037339583831 173.74691255861987 L 191.6354837168688 171.54371411676647 L 191.02276182159912 169.43726186838512 L 190.37054414386907 167.43132623126633 L 189.68400402724598 165.52935984603104 L 188.96849313308087 163.7344860509053 L 188.22952163527668 162.04948852571658 L 187.47273783535755 160.47680214199795 L 186.70390727096083 159.01850505177094 L 185.92889139268766 157.67631204314824 L 185.15362588579336 156.45156918636508 L 184.38409871448178 155.3452497892255 L 183.62632796755338 154.35795167627225 L 182.88633958487594 153.4898958012489 L 182.17014504457597 152.74092619764986 L 181.48371909098887 152.11051126737368 L 180.83297758326546 151.59774640270058 L 180.22375554410394 151.20135793204594 L 179.6617854873533 150.9197083752122 L 179.15267610225624 150.75080298916322 L 178.7018913708052 150.69229758074198 L 178.31473019314976 150.7415075582113 L 177.99630659417207 150.89541818906895 L 177.7515305822737 151.15069602726888 L 177.5850897290766 151.50370146880402 L 177.50143153617137 151.9505023905616 L 177.50474665222015 152.48688882349558 L 177.59895300069238 153.10838860745105 L 177.78768087524412 153.8102839714728 L 178.07425905628727 154.587628980119 L 178.4617019986577 155.43526778319514 L 178.95269813643603 156.34785360346507 L 179.54959934699758 157.31986839424266 L 180.25441161220692 158.34564309638338 L 181.0687869103917 159.41937842204823 L 181.99401636833824 160.5351660907242 L 183.03102469801743 161.68701044138396 L 184.18036593817894 162.86885034330783 L 185.4422205162606 164.0745813270387 L 186.81639364135202 165.298077856145 L 188.3023150341766 166.53321565997277 L 189.89903999527255 167.7738940473526 L 191.60525180777273 169.0140581212927 L 193.4192654663961 170.24772081505498 L 195.33903271952653 171.4689846706466 L 197.36214840654367 172.6720632816927 L 199.48585806795546 173.85130232384944 L 201.70706680129823 175.00120009741093 L 204.02234933134076 176.1164275084979 L 206.4279612587596 177.19184741724285 L 208.91985144725163 178.2225332836448 L 211.4936755049649 179.20378704429152 L 214.14481031221862 180.1311561558999 L 216.86836954373246 181.0004497446146 L 219.6592201300351 181.80775380320438 L 222.5119995993467 182.54944538171378 L 225.42113423810056 183.2222057207279 L 228.38085800530834 183.8230322802036 L 231.385232133307 184.34924962076997 L 234.42816534494912 184.79851909851897 L 237.5034346150949 185.16884733855335 L 240.60470640232515 185.45859345693728 L 243.72555827509916 185.66647500517655 L 246.85950085517848 185.79157261593338 Z"

    />
</svg>